solid 
   facet normal 0.000000e+00 0.000000e+00 -1.000000e+00
      outer loop
         vertex -6.620721e+00 -2.272896e+00 0.000000e+00
         vertex -7.000000e+00 8.572528e-16 0.000000e+00
         vertex -5.523983e+00 -4.299489e+00 0.000000e+00
      endloop
   endfacet
   facet normal 0.000000e+00 -0.000000e+00 -1.000000e+00
      outer loop
         vertex -7.000000e+00 8.572528e-16 0.000000e+00
         vertex -6.620721e+00 2.272896e+00 0.000000e+00
         vertex -5.523983e+00 -4.299489e+00 0.000000e+00
      endloop
   endfacet
   facet normal 0.000000e+00 0.000000e+00 -1.000000e+00
      outer loop
         vertex -5.523983e+00 -4.299489e+00 0.000000e+00
         vertex -6.620721e+00 2.272896e+00 0.000000e+00
         vertex -3.828637e+00 -5.860165e+00 0.000000e+00
      endloop
   endfacet
   facet normal 0.000000e+00 -0.000000e+00 -1.000000e+00
      outer loop
         vertex -6.620721e+00 2.272896e+00 0.000000e+00
         vertex -5.523983e+00 4.299489e+00 0.000000e+00
         vertex -3.828637e+00 -5.860165e+00 0.000000e+00
      endloop
   endfacet
   facet normal 0.000000e+00 0.000000e+00 -1.000000e+00
      outer loop
         vertex -3.828637e+00 -5.860165e+00 0.000000e+00
         vertex -5.523983e+00 4.299489e+00 0.000000e+00
         vertex -1.718398e+00 -6.785802e+00 0.000000e+00
      endloop
   endfacet
   facet normal -0.000000e+00 -0.000000e+00 -1.000000e+00
      outer loop
         vertex -5.523983e+00 4.299489e+00 0.000000e+00
         vertex -3.378633e+00 -1.627064e+00 0.000000e+00
         vertex -1.718398e+00 -6.785802e+00 0.000000e+00
      endloop
   endfacet
   facet normal 0.000000e+00 0.000000e+00 -1.000000e+00
      outer loop
         vertex -1.718398e+00 -6.785802e+00 0.000000e+00
         vertex -3.378633e+00 -1.627064e+00 0.000000e+00
         vertex 5.780554e-01 -6.976091e+00 0.000000e+00
      endloop
   endfacet
   facet normal -0.000000e+00 -0.000000e+00 -1.000000e+00
      outer loop
         vertex -3.378633e+00 -1.627064e+00 0.000000e+00
         vertex -2.338087e+00 -2.931868e+00 0.000000e+00
         vertex 5.780554e-01 -6.976091e+00 0.000000e+00
      endloop
   endfacet
   facet normal 0.000000e+00 0.000000e+00 -1.000000e+00
      outer loop
         vertex 5.780554e-01 -6.976091e+00 0.000000e+00
         vertex -2.338087e+00 -2.931868e+00 0.000000e+00
         vertex 2.811868e+00 -6.410413e+00 0.000000e+00
      endloop
   endfacet
   facet normal -0.000000e+00 -0.000000e+00 -1.000000e+00
      outer loop
         vertex -2.338087e+00 -2.931868e+00 0.000000e+00
         vertex -8.344535e-01 -3.655980e+00 0.000000e+00
         vertex 2.811868e+00 -6.410413e+00 0.000000e+00
      endloop
   endfacet
   facet normal 0.000000e+00 0.000000e+00 -1.000000e+00
      outer loop
         vertex 2.811868e+00 -6.410413e+00 0.000000e+00
         vertex -8.344535e-01 -3.655980e+00 0.000000e+00
         vertex 4.740971e+00 -5.150067e+00 0.000000e+00
      endloop
   endfacet
   facet normal -0.000000e+00 -0.000000e+00 -1.000000e+00
      outer loop
         vertex -8.344535e-01 -3.655980e+00 0.000000e+00
         vertex 8.344535e-01 -3.655980e+00 0.000000e+00
         vertex 4.740971e+00 -5.150067e+00 0.000000e+00
      endloop
   endfacet
   facet normal 0.000000e+00 0.000000e+00 -1.000000e+00
      outer loop
         vertex 4.740971e+00 -5.150067e+00 0.000000e+00
         vertex 8.344535e-01 -3.655980e+00 0.000000e+00
         vertex 6.156316e+00 -3.331632e+00 0.000000e+00
      endloop
   endfacet
   facet normal 0.000000e+00 -0.000000e+00 -1.000000e+00
      outer loop
         vertex 8.344535e-01 -3.655980e+00 0.000000e+00
         vertex 2.338087e+00 -2.931868e+00 0.000000e+00
         vertex 6.156316e+00 -3.331632e+00 0.000000e+00
      endloop
   endfacet
   facet normal 0.000000e+00 0.000000e+00 -1.000000e+00
      outer loop
         vertex 6.156316e+00 -3.331632e+00 0.000000e+00
         vertex 2.338087e+00 -2.931868e+00 0.000000e+00
         vertex 6.904529e+00 -1.152162e+00 0.000000e+00
      endloop
   endfacet
   facet normal 0.000000e+00 -0.000000e+00 -1.000000e+00
      outer loop
         vertex 2.338087e+00 -2.931868e+00 0.000000e+00
         vertex 3.378633e+00 -1.627064e+00 0.000000e+00
         vertex 6.904529e+00 -1.152162e+00 0.000000e+00
      endloop
   endfacet
   facet normal 0.000000e+00 0.000000e+00 -1.000000e+00
      outer loop
         vertex 6.904529e+00 -1.152162e+00 0.000000e+00
         vertex 3.378633e+00 -1.627064e+00 0.000000e+00
         vertex 6.904529e+00 1.152162e+00 0.000000e+00
      endloop
   endfacet
   facet normal 0.000000e+00 -0.000000e+00 -1.000000e+00
      outer loop
         vertex 3.378633e+00 -1.627064e+00 0.000000e+00
         vertex 3.750000e+00 -9.184850e-16 0.000000e+00
         vertex 6.904529e+00 1.152162e+00 0.000000e+00
      endloop
   endfacet
   facet normal 0.000000e+00 0.000000e+00 -1.000000e+00
      outer loop
         vertex 6.904529e+00 1.152162e+00 0.000000e+00
         vertex 3.750000e+00 -9.184850e-16 0.000000e+00
         vertex 6.156316e+00 3.331632e+00 0.000000e+00
      endloop
   endfacet
   facet normal 0.000000e+00 0.000000e+00 -1.000000e+00
      outer loop
         vertex 3.750000e+00 -9.184850e-16 0.000000e+00
         vertex 3.378633e+00 1.627064e+00 0.000000e+00
         vertex 6.156316e+00 3.331632e+00 0.000000e+00
      endloop
   endfacet
   facet normal 0.000000e+00 0.000000e+00 -1.000000e+00
      outer loop
         vertex 6.156316e+00 3.331632e+00 0.000000e+00
         vertex 3.378633e+00 1.627064e+00 0.000000e+00
         vertex 4.740971e+00 5.150067e+00 0.000000e+00
      endloop
   endfacet
   facet normal 0.000000e+00 0.000000e+00 -1.000000e+00
      outer loop
         vertex 3.378633e+00 1.627064e+00 0.000000e+00
         vertex 2.338087e+00 2.931868e+00 0.000000e+00
         vertex 4.740971e+00 5.150067e+00 0.000000e+00
      endloop
   endfacet
   facet normal 0.000000e+00 0.000000e+00 -1.000000e+00
      outer loop
         vertex 4.740971e+00 5.150067e+00 0.000000e+00
         vertex 2.338087e+00 2.931868e+00 0.000000e+00
         vertex 2.811868e+00 6.410413e+00 0.000000e+00
      endloop
   endfacet
   facet normal 0.000000e+00 0.000000e+00 -1.000000e+00
      outer loop
         vertex 2.338087e+00 2.931868e+00 0.000000e+00
         vertex 8.344535e-01 3.655980e+00 0.000000e+00
         vertex 2.811868e+00 6.410413e+00 0.000000e+00
      endloop
   endfacet
   facet normal 0.000000e+00 0.000000e+00 -1.000000e+00
      outer loop
         vertex 2.811868e+00 6.410413e+00 0.000000e+00
         vertex 8.344535e-01 3.655980e+00 0.000000e+00
         vertex 5.780554e-01 6.976091e+00 0.000000e+00
      endloop
   endfacet
   facet normal 0.000000e+00 0.000000e+00 -1.000000e+00
      outer loop
         vertex 8.344535e-01 3.655980e+00 0.000000e+00
         vertex -8.344535e-01 3.655980e+00 0.000000e+00
         vertex 5.780554e-01 6.976091e+00 0.000000e+00
      endloop
   endfacet
   facet normal 0.000000e+00 0.000000e+00 -1.000000e+00
      outer loop
         vertex 5.780554e-01 6.976091e+00 0.000000e+00
         vertex -8.344535e-01 3.655980e+00 0.000000e+00
         vertex -1.718398e+00 6.785802e+00 0.000000e+00
      endloop
   endfacet
   facet normal 0.000000e+00 0.000000e+00 -1.000000e+00
      outer loop
         vertex -8.344535e-01 3.655980e+00 0.000000e+00
         vertex -2.338087e+00 2.931868e+00 0.000000e+00
         vertex -1.718398e+00 6.785802e+00 0.000000e+00
      endloop
   endfacet
   facet normal 0.000000e+00 0.000000e+00 -1.000000e+00
      outer loop
         vertex -1.718398e+00 6.785802e+00 0.000000e+00
         vertex -2.338087e+00 2.931868e+00 0.000000e+00
         vertex -3.828637e+00 5.860165e+00 0.000000e+00
      endloop
   endfacet
   facet normal 0.000000e+00 0.000000e+00 -1.000000e+00
      outer loop
         vertex -2.338087e+00 2.931868e+00 0.000000e+00
         vertex -3.378633e+00 1.627064e+00 0.000000e+00
         vertex -3.828637e+00 5.860165e+00 0.000000e+00
      endloop
   endfacet
   facet normal 0.000000e+00 0.000000e+00 -1.000000e+00
      outer loop
         vertex -3.828637e+00 5.860165e+00 0.000000e+00
         vertex -3.378633e+00 1.627064e+00 0.000000e+00
         vertex -5.523983e+00 4.299489e+00 0.000000e+00
      endloop
   endfacet
   facet normal 0.000000e+00 0.000000e+00 -1.000000e+00
      outer loop
         vertex -3.378633e+00 1.627064e+00 0.000000e+00
         vertex -3.750000e+00 4.592425e-16 0.000000e+00
         vertex -5.523983e+00 4.299489e+00 0.000000e+00
      endloop
   endfacet
   facet normal 0.000000e+00 0.000000e+00 -1.000000e+00
      outer loop
         vertex -3.378633e+00 -1.627064e+00 0.000000e+00
         vertex -5.523983e+00 4.299489e+00 0.000000e+00
         vertex -3.750000e+00 4.592425e-16 0.000000e+00
      endloop
   endfacet
   facet normal 0.000000e+00 0.000000e+00 1.000000e+00
      outer loop
         vertex -6.620721e+00 2.272896e+00 3.000000e+00
         vertex -7.000000e+00 8.572528e-16 3.000000e+00
         vertex -5.523983e+00 4.299489e+00 3.000000e+00
      endloop
   endfacet
   facet normal 0.000000e+00 -0.000000e+00 1.000000e+00
      outer loop
         vertex -7.000000e+00 8.572528e-16 3.000000e+00
         vertex -6.620721e+00 -2.272896e+00 3.000000e+00
         vertex -5.523983e+00 4.299489e+00 3.000000e+00
      endloop
   endfacet
   facet normal 0.000000e+00 0.000000e+00 1.000000e+00
      outer loop
         vertex -5.523983e+00 4.299489e+00 3.000000e+00
         vertex -6.620721e+00 -2.272896e+00 3.000000e+00
         vertex -3.828637e+00 5.860165e+00 3.000000e+00
      endloop
   endfacet
   facet normal 0.000000e+00 -0.000000e+00 1.000000e+00
      outer loop
         vertex -6.620721e+00 -2.272896e+00 3.000000e+00
         vertex -5.523983e+00 -4.299489e+00 3.000000e+00
         vertex -3.828637e+00 5.860165e+00 3.000000e+00
      endloop
   endfacet
   facet normal 0.000000e+00 0.000000e+00 1.000000e+00
      outer loop
         vertex -3.828637e+00 5.860165e+00 3.000000e+00
         vertex -5.523983e+00 -4.299489e+00 3.000000e+00
         vertex -1.718398e+00 6.785802e+00 3.000000e+00
      endloop
   endfacet
   facet normal 0.000000e+00 -0.000000e+00 1.000000e+00
      outer loop
         vertex -5.523983e+00 -4.299489e+00 3.000000e+00
         vertex -3.378633e+00 1.627064e+00 3.000000e+00
         vertex -1.718398e+00 6.785802e+00 3.000000e+00
      endloop
   endfacet
   facet normal 0.000000e+00 0.000000e+00 1.000000e+00
      outer loop
         vertex -1.718398e+00 6.785802e+00 3.000000e+00
         vertex -3.378633e+00 1.627064e+00 3.000000e+00
         vertex 5.780554e-01 6.976091e+00 3.000000e+00
      endloop
   endfacet
   facet normal 0.000000e+00 -0.000000e+00 1.000000e+00
      outer loop
         vertex -3.378633e+00 1.627064e+00 3.000000e+00
         vertex -2.338087e+00 2.931868e+00 3.000000e+00
         vertex 5.780554e-01 6.976091e+00 3.000000e+00
      endloop
   endfacet
   facet normal 0.000000e+00 0.000000e+00 1.000000e+00
      outer loop
         vertex 5.780554e-01 6.976091e+00 3.000000e+00
         vertex -2.338087e+00 2.931868e+00 3.000000e+00
         vertex 2.811868e+00 6.410413e+00 3.000000e+00
      endloop
   endfacet
   facet normal 0.000000e+00 -0.000000e+00 1.000000e+00
      outer loop
         vertex -2.338087e+00 2.931868e+00 3.000000e+00
         vertex -8.344535e-01 3.655980e+00 3.000000e+00
         vertex 2.811868e+00 6.410413e+00 3.000000e+00
      endloop
   endfacet
   facet normal 0.000000e+00 0.000000e+00 1.000000e+00
      outer loop
         vertex 2.811868e+00 6.410413e+00 3.000000e+00
         vertex -8.344535e-01 3.655980e+00 3.000000e+00
         vertex 4.740971e+00 5.150067e+00 3.000000e+00
      endloop
   endfacet
   facet normal 0.000000e+00 -0.000000e+00 1.000000e+00
      outer loop
         vertex -8.344535e-01 3.655980e+00 3.000000e+00
         vertex 8.344535e-01 3.655980e+00 3.000000e+00
         vertex 4.740971e+00 5.150067e+00 3.000000e+00
      endloop
   endfacet
   facet normal -0.000000e+00 0.000000e+00 1.000000e+00
      outer loop
         vertex 4.740971e+00 5.150067e+00 3.000000e+00
         vertex 8.344535e-01 3.655980e+00 3.000000e+00
         vertex 6.156316e+00 3.331632e+00 3.000000e+00
      endloop
   endfacet
   facet normal 0.000000e+00 -0.000000e+00 1.000000e+00
      outer loop
         vertex 8.344535e-01 3.655980e+00 3.000000e+00
         vertex 2.338087e+00 2.931868e+00 3.000000e+00
         vertex 6.156316e+00 3.331632e+00 3.000000e+00
      endloop
   endfacet
   facet normal -0.000000e+00 0.000000e+00 1.000000e+00
      outer loop
         vertex 6.156316e+00 3.331632e+00 3.000000e+00
         vertex 2.338087e+00 2.931868e+00 3.000000e+00
         vertex 6.904529e+00 1.152162e+00 3.000000e+00
      endloop
   endfacet
   facet normal -0.000000e+00 -0.000000e+00 1.000000e+00
      outer loop
         vertex 2.338087e+00 2.931868e+00 3.000000e+00
         vertex 3.378633e+00 1.627064e+00 3.000000e+00
         vertex 6.904529e+00 1.152162e+00 3.000000e+00
      endloop
   endfacet
   facet normal 0.000000e+00 0.000000e+00 1.000000e+00
      outer loop
         vertex 6.904529e+00 1.152162e+00 3.000000e+00
         vertex 3.378633e+00 1.627064e+00 3.000000e+00
         vertex 6.904529e+00 -1.152162e+00 3.000000e+00
      endloop
   endfacet
   facet normal -0.000000e+00 -0.000000e+00 1.000000e+00
      outer loop
         vertex 3.378633e+00 1.627064e+00 3.000000e+00
         vertex 3.750000e+00 -9.184850e-16 3.000000e+00
         vertex 6.904529e+00 -1.152162e+00 3.000000e+00
      endloop
   endfacet
   facet normal 0.000000e+00 0.000000e+00 1.000000e+00
      outer loop
         vertex 6.904529e+00 -1.152162e+00 3.000000e+00
         vertex 3.750000e+00 -9.184850e-16 3.000000e+00
         vertex 6.156316e+00 -3.331632e+00 3.000000e+00
      endloop
   endfacet
   facet normal -0.000000e+00 0.000000e+00 1.000000e+00
      outer loop
         vertex 3.750000e+00 -9.184850e-16 3.000000e+00
         vertex 3.378633e+00 -1.627064e+00 3.000000e+00
         vertex 6.156316e+00 -3.331632e+00 3.000000e+00
      endloop
   endfacet
   facet normal 0.000000e+00 0.000000e+00 1.000000e+00
      outer loop
         vertex 6.156316e+00 -3.331632e+00 3.000000e+00
         vertex 3.378633e+00 -1.627064e+00 3.000000e+00
         vertex 4.740971e+00 -5.150067e+00 3.000000e+00
      endloop
   endfacet
   facet normal -0.000000e+00 0.000000e+00 1.000000e+00
      outer loop
         vertex 3.378633e+00 -1.627064e+00 3.000000e+00
         vertex 2.338087e+00 -2.931868e+00 3.000000e+00
         vertex 4.740971e+00 -5.150067e+00 3.000000e+00
      endloop
   endfacet
   facet normal 0.000000e+00 0.000000e+00 1.000000e+00
      outer loop
         vertex 4.740971e+00 -5.150067e+00 3.000000e+00
         vertex 2.338087e+00 -2.931868e+00 3.000000e+00
         vertex 2.811868e+00 -6.410413e+00 3.000000e+00
      endloop
   endfacet
   facet normal -0.000000e+00 0.000000e+00 1.000000e+00
      outer loop
         vertex 2.338087e+00 -2.931868e+00 3.000000e+00
         vertex 8.344535e-01 -3.655980e+00 3.000000e+00
         vertex 2.811868e+00 -6.410413e+00 3.000000e+00
      endloop
   endfacet
   facet normal 0.000000e+00 0.000000e+00 1.000000e+00
      outer loop
         vertex 2.811868e+00 -6.410413e+00 3.000000e+00
         vertex 8.344535e-01 -3.655980e+00 3.000000e+00
         vertex 5.780554e-01 -6.976091e+00 3.000000e+00
      endloop
   endfacet
   facet normal -0.000000e+00 0.000000e+00 1.000000e+00
      outer loop
         vertex 8.344535e-01 -3.655980e+00 3.000000e+00
         vertex -8.344535e-01 -3.655980e+00 3.000000e+00
         vertex 5.780554e-01 -6.976091e+00 3.000000e+00
      endloop
   endfacet
   facet normal 0.000000e+00 0.000000e+00 1.000000e+00
      outer loop
         vertex 5.780554e-01 -6.976091e+00 3.000000e+00
         vertex -8.344535e-01 -3.655980e+00 3.000000e+00
         vertex -1.718398e+00 -6.785802e+00 3.000000e+00
      endloop
   endfacet
   facet normal 0.000000e+00 0.000000e+00 1.000000e+00
      outer loop
         vertex -8.344535e-01 -3.655980e+00 3.000000e+00
         vertex -2.338087e+00 -2.931868e+00 3.000000e+00
         vertex -1.718398e+00 -6.785802e+00 3.000000e+00
      endloop
   endfacet
   facet normal 0.000000e+00 0.000000e+00 1.000000e+00
      outer loop
         vertex -1.718398e+00 -6.785802e+00 3.000000e+00
         vertex -2.338087e+00 -2.931868e+00 3.000000e+00
         vertex -3.828637e+00 -5.860165e+00 3.000000e+00
      endloop
   endfacet
   facet normal 0.000000e+00 0.000000e+00 1.000000e+00
      outer loop
         vertex -2.338087e+00 -2.931868e+00 3.000000e+00
         vertex -3.378633e+00 -1.627064e+00 3.000000e+00
         vertex -3.828637e+00 -5.860165e+00 3.000000e+00
      endloop
   endfacet
   facet normal 0.000000e+00 0.000000e+00 1.000000e+00
      outer loop
         vertex -3.828637e+00 -5.860165e+00 3.000000e+00
         vertex -3.378633e+00 -1.627064e+00 3.000000e+00
         vertex -5.523983e+00 -4.299489e+00 3.000000e+00
      endloop
   endfacet
   facet normal 0.000000e+00 0.000000e+00 1.000000e+00
      outer loop
         vertex -3.378633e+00 -1.627064e+00 3.000000e+00
         vertex -3.750000e+00 4.592425e-16 3.000000e+00
         vertex -5.523983e+00 -4.299489e+00 3.000000e+00
      endloop
   endfacet
   facet normal 0.000000e+00 0.000000e+00 1.000000e+00
      outer loop
         vertex -3.378633e+00 1.627064e+00 3.000000e+00
         vertex -5.523983e+00 -4.299489e+00 3.000000e+00
         vertex -3.750000e+00 4.592425e-16 3.000000e+00
      endloop
   endfacet
   facet normal 9.749279e-01 2.225209e-01 -0.000000e+00
      outer loop
         vertex -3.378633e+00 -1.627064e+00 3.000000e+00
         vertex -3.378633e+00 -1.627064e+00 0.000000e+00
         vertex -3.750000e+00 4.592425e-16 0.000000e+00
      endloop
   endfacet
   facet normal 9.749279e-01 2.225209e-01 0.000000e+00
      outer loop
         vertex -3.750000e+00 4.592425e-16 3.000000e+00
         vertex -3.378633e+00 -1.627064e+00 3.000000e+00
         vertex -3.750000e+00 4.592425e-16 0.000000e+00
      endloop
   endfacet
   facet normal 7.818315e-01 6.234898e-01 -0.000000e+00
      outer loop
         vertex -2.338087e+00 -2.931868e+00 3.000000e+00
         vertex -2.338087e+00 -2.931868e+00 0.000000e+00
         vertex -3.378633e+00 -1.627064e+00 0.000000e+00
      endloop
   endfacet
   facet normal 7.818315e-01 6.234898e-01 0.000000e+00
      outer loop
         vertex -3.378633e+00 -1.627064e+00 3.000000e+00
         vertex -2.338087e+00 -2.931868e+00 3.000000e+00
         vertex -3.378633e+00 -1.627064e+00 0.000000e+00
      endloop
   endfacet
   facet normal 4.338837e-01 9.009689e-01 -0.000000e+00
      outer loop
         vertex -8.344535e-01 -3.655980e+00 3.000000e+00
         vertex -8.344535e-01 -3.655980e+00 0.000000e+00
         vertex -2.338087e+00 -2.931868e+00 0.000000e+00
      endloop
   endfacet
   facet normal 4.338837e-01 9.009689e-01 0.000000e+00
      outer loop
         vertex -2.338087e+00 -2.931868e+00 3.000000e+00
         vertex -8.344535e-01 -3.655980e+00 3.000000e+00
         vertex -2.338087e+00 -2.931868e+00 0.000000e+00
      endloop
   endfacet
   facet normal 0.000000e+00 1.000000e+00 -0.000000e+00
      outer loop
         vertex 8.344535e-01 -3.655980e+00 3.000000e+00
         vertex 8.344535e-01 -3.655980e+00 0.000000e+00
         vertex -8.344535e-01 -3.655980e+00 0.000000e+00
      endloop
   endfacet
   facet normal 0.000000e+00 1.000000e+00 0.000000e+00
      outer loop
         vertex -8.344535e-01 -3.655980e+00 3.000000e+00
         vertex 8.344535e-01 -3.655980e+00 3.000000e+00
         vertex -8.344535e-01 -3.655980e+00 0.000000e+00
      endloop
   endfacet
   facet normal -4.338837e-01 9.009689e-01 0.000000e+00
      outer loop
         vertex 2.338087e+00 -2.931868e+00 3.000000e+00
         vertex 2.338087e+00 -2.931868e+00 0.000000e+00
         vertex 8.344535e-01 -3.655980e+00 0.000000e+00
      endloop
   endfacet
   facet normal -4.338837e-01 9.009689e-01 0.000000e+00
      outer loop
         vertex 8.344535e-01 -3.655980e+00 3.000000e+00
         vertex 2.338087e+00 -2.931868e+00 3.000000e+00
         vertex 8.344535e-01 -3.655980e+00 0.000000e+00
      endloop
   endfacet
   facet normal -7.818315e-01 6.234898e-01 0.000000e+00
      outer loop
         vertex 3.378633e+00 -1.627064e+00 3.000000e+00
         vertex 3.378633e+00 -1.627064e+00 0.000000e+00
         vertex 2.338087e+00 -2.931868e+00 0.000000e+00
      endloop
   endfacet
   facet normal -7.818315e-01 6.234898e-01 0.000000e+00
      outer loop
         vertex 2.338087e+00 -2.931868e+00 3.000000e+00
         vertex 3.378633e+00 -1.627064e+00 3.000000e+00
         vertex 2.338087e+00 -2.931868e+00 0.000000e+00
      endloop
   endfacet
   facet normal -9.749279e-01 2.225209e-01 0.000000e+00
      outer loop
         vertex 3.750000e+00 -9.184850e-16 3.000000e+00
         vertex 3.750000e+00 -9.184850e-16 0.000000e+00
         vertex 3.378633e+00 -1.627064e+00 0.000000e+00
      endloop
   endfacet
   facet normal -9.749279e-01 2.225209e-01 0.000000e+00
      outer loop
         vertex 3.378633e+00 -1.627064e+00 3.000000e+00
         vertex 3.750000e+00 -9.184850e-16 3.000000e+00
         vertex 3.378633e+00 -1.627064e+00 0.000000e+00
      endloop
   endfacet
   facet normal -9.749279e-01 -2.225209e-01 0.000000e+00
      outer loop
         vertex 3.378633e+00 1.627064e+00 3.000000e+00
         vertex 3.378633e+00 1.627064e+00 0.000000e+00
         vertex 3.750000e+00 -9.184850e-16 0.000000e+00
      endloop
   endfacet
   facet normal -9.749279e-01 -2.225209e-01 0.000000e+00
      outer loop
         vertex 3.750000e+00 -9.184850e-16 3.000000e+00
         vertex 3.378633e+00 1.627064e+00 3.000000e+00
         vertex 3.750000e+00 -9.184850e-16 0.000000e+00
      endloop
   endfacet
   facet normal -7.818315e-01 -6.234898e-01 0.000000e+00
      outer loop
         vertex 2.338087e+00 2.931868e+00 3.000000e+00
         vertex 2.338087e+00 2.931868e+00 0.000000e+00
         vertex 3.378633e+00 1.627064e+00 0.000000e+00
      endloop
   endfacet
   facet normal -7.818315e-01 -6.234898e-01 0.000000e+00
      outer loop
         vertex 3.378633e+00 1.627064e+00 3.000000e+00
         vertex 2.338087e+00 2.931868e+00 3.000000e+00
         vertex 3.378633e+00 1.627064e+00 0.000000e+00
      endloop
   endfacet
   facet normal -4.338837e-01 -9.009689e-01 0.000000e+00
      outer loop
         vertex 8.344535e-01 3.655980e+00 3.000000e+00
         vertex 8.344535e-01 3.655980e+00 0.000000e+00
         vertex 2.338087e+00 2.931868e+00 0.000000e+00
      endloop
   endfacet
   facet normal -4.338837e-01 -9.009689e-01 0.000000e+00
      outer loop
         vertex 2.338087e+00 2.931868e+00 3.000000e+00
         vertex 8.344535e-01 3.655980e+00 3.000000e+00
         vertex 2.338087e+00 2.931868e+00 0.000000e+00
      endloop
   endfacet
   facet normal 0.000000e+00 -1.000000e+00 0.000000e+00
      outer loop
         vertex -8.344535e-01 3.655980e+00 3.000000e+00
         vertex -8.344535e-01 3.655980e+00 0.000000e+00
         vertex 8.344535e-01 3.655980e+00 0.000000e+00
      endloop
   endfacet
   facet normal 0.000000e+00 -1.000000e+00 0.000000e+00
      outer loop
         vertex 8.344535e-01 3.655980e+00 3.000000e+00
         vertex -8.344535e-01 3.655980e+00 3.000000e+00
         vertex 8.344535e-01 3.655980e+00 0.000000e+00
      endloop
   endfacet
   facet normal 4.338837e-01 -9.009689e-01 0.000000e+00
      outer loop
         vertex -2.338087e+00 2.931868e+00 3.000000e+00
         vertex -2.338087e+00 2.931868e+00 0.000000e+00
         vertex -8.344535e-01 3.655980e+00 0.000000e+00
      endloop
   endfacet
   facet normal 4.338837e-01 -9.009689e-01 0.000000e+00
      outer loop
         vertex -8.344535e-01 3.655980e+00 3.000000e+00
         vertex -2.338087e+00 2.931868e+00 3.000000e+00
         vertex -8.344535e-01 3.655980e+00 0.000000e+00
      endloop
   endfacet
   facet normal 7.818315e-01 -6.234898e-01 0.000000e+00
      outer loop
         vertex -3.378633e+00 1.627064e+00 3.000000e+00
         vertex -3.378633e+00 1.627064e+00 0.000000e+00
         vertex -2.338087e+00 2.931868e+00 0.000000e+00
      endloop
   endfacet
   facet normal 7.818315e-01 -6.234898e-01 0.000000e+00
      outer loop
         vertex -2.338087e+00 2.931868e+00 3.000000e+00
         vertex -3.378633e+00 1.627064e+00 3.000000e+00
         vertex -2.338087e+00 2.931868e+00 0.000000e+00
      endloop
   endfacet
   facet normal 9.749279e-01 -2.225209e-01 0.000000e+00
      outer loop
         vertex -3.750000e+00 1.377728e-15 3.000000e+00
         vertex -3.750000e+00 1.377728e-15 0.000000e+00
         vertex -3.378633e+00 1.627064e+00 0.000000e+00
      endloop
   endfacet
   facet normal 9.749279e-01 -2.225209e-01 0.000000e+00
      outer loop
         vertex -3.378633e+00 1.627064e+00 3.000000e+00
         vertex -3.750000e+00 1.377728e-15 3.000000e+00
         vertex -3.378633e+00 1.627064e+00 0.000000e+00
      endloop
   endfacet
   facet normal -9.863613e-01 -1.645945e-01 0.000000e+00
      outer loop
         vertex -7.000000e+00 8.572528e-16 0.000000e+00
         vertex -6.620721e+00 -2.272896e+00 0.000000e+00
         vertex -6.620721e+00 -2.272896e+00 3.000000e+00
      endloop
   endfacet
   facet normal -9.863613e-01 -1.645945e-01 0.000000e+00
      outer loop
         vertex -7.000000e+00 8.572528e-16 0.000000e+00
         vertex -6.620721e+00 -2.272896e+00 3.000000e+00
         vertex -7.000000e+00 8.572528e-16 3.000000e+00
      endloop
   endfacet
   facet normal -8.794737e-01 -4.759475e-01 0.000000e+00
      outer loop
         vertex -6.620721e+00 -2.272896e+00 0.000000e+00
         vertex -5.523983e+00 -4.299489e+00 0.000000e+00
         vertex -5.523983e+00 -4.299489e+00 3.000000e+00
      endloop
   endfacet
   facet normal -8.794737e-01 -4.759475e-01 0.000000e+00
      outer loop
         vertex -6.620721e+00 -2.272896e+00 0.000000e+00
         vertex -5.523983e+00 -4.299489e+00 3.000000e+00
         vertex -6.620721e+00 -2.272896e+00 3.000000e+00
      endloop
   endfacet
   facet normal -6.772815e-01 -7.357239e-01 0.000000e+00
      outer loop
         vertex -5.523983e+00 -4.299489e+00 0.000000e+00
         vertex -3.828637e+00 -5.860165e+00 0.000000e+00
         vertex -3.828637e+00 -5.860165e+00 3.000000e+00
      endloop
   endfacet
   facet normal -6.772815e-01 -7.357239e-01 0.000000e+00
      outer loop
         vertex -5.523983e+00 -4.299489e+00 0.000000e+00
         vertex -3.828637e+00 -5.860165e+00 3.000000e+00
         vertex -5.523983e+00 -4.299489e+00 3.000000e+00
      endloop
   endfacet
   facet normal -4.016955e-01 -9.157733e-01 0.000000e+00
      outer loop
         vertex -3.828637e+00 -5.860165e+00 0.000000e+00
         vertex -1.718398e+00 -6.785802e+00 0.000000e+00
         vertex -1.718398e+00 -6.785802e+00 3.000000e+00
      endloop
   endfacet
   facet normal -4.016955e-01 -9.157733e-01 0.000000e+00
      outer loop
         vertex -3.828637e+00 -5.860165e+00 0.000000e+00
         vertex -1.718398e+00 -6.785802e+00 3.000000e+00
         vertex -3.828637e+00 -5.860165e+00 3.000000e+00
      endloop
   endfacet
   facet normal -8.257930e-02 -9.965845e-01 0.000000e+00
      outer loop
         vertex -1.718398e+00 -6.785802e+00 0.000000e+00
         vertex 5.780554e-01 -6.976091e+00 0.000000e+00
         vertex 5.780554e-01 -6.976091e+00 3.000000e+00
      endloop
   endfacet
   facet normal -8.257930e-02 -9.965845e-01 0.000000e+00
      outer loop
         vertex -1.718398e+00 -6.785802e+00 0.000000e+00
         vertex 5.780554e-01 -6.976091e+00 3.000000e+00
         vertex -1.718398e+00 -6.785802e+00 3.000000e+00
      endloop
   endfacet
   facet normal 2.454855e-01 -9.694003e-01 0.000000e+00
      outer loop
         vertex 5.780554e-01 -6.976091e+00 0.000000e+00
         vertex 2.811868e+00 -6.410413e+00 0.000000e+00
         vertex 2.811868e+00 -6.410413e+00 3.000000e+00
      endloop
   endfacet
   facet normal 2.454855e-01 -9.694003e-01 0.000000e+00
      outer loop
         vertex 5.780554e-01 -6.976091e+00 0.000000e+00
         vertex 2.811868e+00 -6.410413e+00 3.000000e+00
         vertex 5.780554e-01 -6.976091e+00 3.000000e+00
      endloop
   endfacet
   facet normal 5.469481e-01 -8.371665e-01 0.000000e+00
      outer loop
         vertex 2.811868e+00 -6.410413e+00 0.000000e+00
         vertex 4.740971e+00 -5.150067e+00 0.000000e+00
         vertex 4.740971e+00 -5.150067e+00 3.000000e+00
      endloop
   endfacet
   facet normal 5.469481e-01 -8.371665e-01 0.000000e+00
      outer loop
         vertex 2.811868e+00 -6.410413e+00 0.000000e+00
         vertex 4.740971e+00 -5.150067e+00 3.000000e+00
         vertex 2.811868e+00 -6.410413e+00 3.000000e+00
      endloop
   endfacet
   facet normal 7.891405e-01 -6.142127e-01 0.000000e+00
      outer loop
         vertex 4.740971e+00 -5.150067e+00 0.000000e+00
         vertex 6.156316e+00 -3.331632e+00 0.000000e+00
         vertex 6.156316e+00 -3.331632e+00 3.000000e+00
      endloop
   endfacet
   facet normal 7.891405e-01 -6.142127e-01 0.000000e+00
      outer loop
         vertex 4.740971e+00 -5.150067e+00 0.000000e+00
         vertex 6.156316e+00 -3.331632e+00 3.000000e+00
         vertex 4.740971e+00 -5.150067e+00 3.000000e+00
      endloop
   endfacet
   facet normal 9.458172e-01 -3.246995e-01 0.000000e+00
      outer loop
         vertex 6.156316e+00 -3.331632e+00 0.000000e+00
         vertex 6.904529e+00 -1.152162e+00 0.000000e+00
         vertex 6.904529e+00 -1.152162e+00 3.000000e+00
      endloop
   endfacet
   facet normal 9.458172e-01 -3.246995e-01 0.000000e+00
      outer loop
         vertex 6.156316e+00 -3.331632e+00 0.000000e+00
         vertex 6.904529e+00 -1.152162e+00 3.000000e+00
         vertex 6.156316e+00 -3.331632e+00 3.000000e+00
      endloop
   endfacet
   facet normal 1.000000e+00 0.000000e+00 -0.000000e+00
      outer loop
         vertex 6.904529e+00 -1.152162e+00 0.000000e+00
         vertex 6.904529e+00 1.152162e+00 0.000000e+00
         vertex 6.904529e+00 1.152162e+00 3.000000e+00
      endloop
   endfacet
   facet normal 1.000000e+00 0.000000e+00 0.000000e+00
      outer loop
         vertex 6.904529e+00 -1.152162e+00 0.000000e+00
         vertex 6.904529e+00 1.152162e+00 3.000000e+00
         vertex 6.904529e+00 -1.152162e+00 3.000000e+00
      endloop
   endfacet
   facet normal 9.458172e-01 3.246995e-01 -0.000000e+00
      outer loop
         vertex 6.904529e+00 1.152162e+00 0.000000e+00
         vertex 6.156316e+00 3.331632e+00 0.000000e+00
         vertex 6.156316e+00 3.331632e+00 3.000000e+00
      endloop
   endfacet
   facet normal 9.458172e-01 3.246995e-01 0.000000e+00
      outer loop
         vertex 6.904529e+00 1.152162e+00 0.000000e+00
         vertex 6.156316e+00 3.331632e+00 3.000000e+00
         vertex 6.904529e+00 1.152162e+00 3.000000e+00
      endloop
   endfacet
   facet normal 7.891405e-01 6.142127e-01 -0.000000e+00
      outer loop
         vertex 6.156316e+00 3.331632e+00 0.000000e+00
         vertex 4.740971e+00 5.150067e+00 0.000000e+00
         vertex 4.740971e+00 5.150067e+00 3.000000e+00
      endloop
   endfacet
   facet normal 7.891405e-01 6.142127e-01 0.000000e+00
      outer loop
         vertex 6.156316e+00 3.331632e+00 0.000000e+00
         vertex 4.740971e+00 5.150067e+00 3.000000e+00
         vertex 6.156316e+00 3.331632e+00 3.000000e+00
      endloop
   endfacet
   facet normal 5.469481e-01 8.371665e-01 -0.000000e+00
      outer loop
         vertex 4.740971e+00 5.150067e+00 0.000000e+00
         vertex 2.811868e+00 6.410413e+00 0.000000e+00
         vertex 2.811868e+00 6.410413e+00 3.000000e+00
      endloop
   endfacet
   facet normal 5.469481e-01 8.371665e-01 0.000000e+00
      outer loop
         vertex 4.740971e+00 5.150067e+00 0.000000e+00
         vertex 2.811868e+00 6.410413e+00 3.000000e+00
         vertex 4.740971e+00 5.150067e+00 3.000000e+00
      endloop
   endfacet
   facet normal 2.454855e-01 9.694003e-01 -0.000000e+00
      outer loop
         vertex 2.811868e+00 6.410413e+00 0.000000e+00
         vertex 5.780554e-01 6.976091e+00 0.000000e+00
         vertex 5.780554e-01 6.976091e+00 3.000000e+00
      endloop
   endfacet
   facet normal 2.454855e-01 9.694003e-01 0.000000e+00
      outer loop
         vertex 2.811868e+00 6.410413e+00 0.000000e+00
         vertex 5.780554e-01 6.976091e+00 3.000000e+00
         vertex 2.811868e+00 6.410413e+00 3.000000e+00
      endloop
   endfacet
   facet normal -8.257930e-02 9.965845e-01 0.000000e+00
      outer loop
         vertex 5.780554e-01 6.976091e+00 0.000000e+00
         vertex -1.718398e+00 6.785802e+00 0.000000e+00
         vertex -1.718398e+00 6.785802e+00 3.000000e+00
      endloop
   endfacet
   facet normal -8.257930e-02 9.965845e-01 0.000000e+00
      outer loop
         vertex 5.780554e-01 6.976091e+00 0.000000e+00
         vertex -1.718398e+00 6.785802e+00 3.000000e+00
         vertex 5.780554e-01 6.976091e+00 3.000000e+00
      endloop
   endfacet
   facet normal -4.016955e-01 9.157733e-01 0.000000e+00
      outer loop
         vertex -1.718398e+00 6.785802e+00 0.000000e+00
         vertex -3.828637e+00 5.860165e+00 0.000000e+00
         vertex -3.828637e+00 5.860165e+00 3.000000e+00
      endloop
   endfacet
   facet normal -4.016955e-01 9.157733e-01 0.000000e+00
      outer loop
         vertex -1.718398e+00 6.785802e+00 0.000000e+00
         vertex -3.828637e+00 5.860165e+00 3.000000e+00
         vertex -1.718398e+00 6.785802e+00 3.000000e+00
      endloop
   endfacet
   facet normal -6.772815e-01 7.357239e-01 0.000000e+00
      outer loop
         vertex -3.828637e+00 5.860165e+00 0.000000e+00
         vertex -5.523983e+00 4.299489e+00 0.000000e+00
         vertex -5.523983e+00 4.299489e+00 3.000000e+00
      endloop
   endfacet
   facet normal -6.772815e-01 7.357239e-01 0.000000e+00
      outer loop
         vertex -3.828637e+00 5.860165e+00 0.000000e+00
         vertex -5.523983e+00 4.299489e+00 3.000000e+00
         vertex -3.828637e+00 5.860165e+00 3.000000e+00
      endloop
   endfacet
   facet normal -8.794737e-01 4.759475e-01 0.000000e+00
      outer loop
         vertex -5.523983e+00 4.299489e+00 0.000000e+00
         vertex -6.620721e+00 2.272896e+00 0.000000e+00
         vertex -6.620721e+00 2.272896e+00 3.000000e+00
      endloop
   endfacet
   facet normal -8.794737e-01 4.759475e-01 0.000000e+00
      outer loop
         vertex -5.523983e+00 4.299489e+00 0.000000e+00
         vertex -6.620721e+00 2.272896e+00 3.000000e+00
         vertex -5.523983e+00 4.299489e+00 3.000000e+00
      endloop
   endfacet
   facet normal -9.863613e-01 1.645945e-01 0.000000e+00
      outer loop
         vertex -6.620721e+00 2.272896e+00 0.000000e+00
         vertex -7.000000e+00 2.571758e-15 0.000000e+00
         vertex -7.000000e+00 2.571758e-15 3.000000e+00
      endloop
   endfacet
   facet normal -9.863613e-01 1.645945e-01 0.000000e+00
      outer loop
         vertex -6.620721e+00 2.272896e+00 0.000000e+00
         vertex -7.000000e+00 2.571758e-15 3.000000e+00
         vertex -6.620721e+00 2.272896e+00 3.000000e+00
      endloop
   endfacet
endsolid
