solid 
   facet normal 1.000000e+00 0.000000e+00 0.000000e+00
      outer loop
         vertex -4.000000e+01 -4.647522e+00 -2.710444e+01
         vertex -4.000000e+01 -2.138711e-15 -2.750000e+01
         vertex -4.000000e+01 -9.161345e+00 -2.592913e+01
      endloop
   endfacet
   facet normal 1.000000e+00 0.000000e+00 0.000000e+00
      outer loop
         vertex -4.000000e+01 -2.138711e-15 -2.750000e+01
         vertex -4.000000e+01 4.647522e+00 -2.710444e+01
         vertex -4.000000e+01 -9.161345e+00 -2.592913e+01
      endloop
   endfacet
   facet normal 1.000000e+00 0.000000e+00 0.000000e+00
      outer loop
         vertex -4.000000e+01 -9.161345e+00 -2.592913e+01
         vertex -4.000000e+01 4.647522e+00 -2.710444e+01
         vertex -4.000000e+01 -1.341161e+01 -2.400789e+01
      endloop
   endfacet
   facet normal 1.000000e+00 0.000000e+00 0.000000e+00
      outer loop
         vertex -4.000000e+01 4.647522e+00 -2.710444e+01
         vertex -4.000000e+01 9.161345e+00 -2.592913e+01
         vertex -4.000000e+01 -1.341161e+01 -2.400789e+01
      endloop
   endfacet
   facet normal 1.000000e+00 0.000000e+00 0.000000e+00
      outer loop
         vertex -4.000000e+01 -1.341161e+01 -2.400789e+01
         vertex -4.000000e+01 9.161345e+00 -2.592913e+01
         vertex -4.000000e+01 -1.727605e+01 -2.139598e+01
      endloop
   endfacet
   facet normal 1.000000e+00 0.000000e+00 0.000000e+00
      outer loop
         vertex -4.000000e+01 9.161345e+00 -2.592913e+01
         vertex -4.000000e+01 1.341161e+01 -2.400789e+01
         vertex -4.000000e+01 -1.727605e+01 -2.139598e+01
      endloop
   endfacet
   facet normal 1.000000e+00 0.000000e+00 0.000000e+00
      outer loop
         vertex -4.000000e+01 -1.727605e+01 -2.139598e+01
         vertex -4.000000e+01 1.341161e+01 -2.400789e+01
         vertex -4.000000e+01 -2.064349e+01 -1.816855e+01
      endloop
   endfacet
   facet normal 1.000000e+00 0.000000e+00 0.000000e+00
      outer loop
         vertex -4.000000e+01 1.341161e+01 -2.400789e+01
         vertex -4.000000e+01 1.727605e+01 -2.139598e+01
         vertex -4.000000e+01 -2.064349e+01 -1.816855e+01
      endloop
   endfacet
   facet normal 1.000000e+00 0.000000e+00 0.000000e+00
      outer loop
         vertex -4.000000e+01 -2.064349e+01 -1.816855e+01
         vertex -4.000000e+01 1.727605e+01 -2.139598e+01
         vertex -4.000000e+01 -2.341705e+01 -1.441845e+01
      endloop
   endfacet
   facet normal 1.000000e+00 0.000000e+00 0.000000e+00
      outer loop
         vertex -4.000000e+01 1.727605e+01 -2.139598e+01
         vertex -4.000000e+01 2.064349e+01 -1.816855e+01
         vertex -4.000000e+01 -2.341705e+01 -1.441845e+01
      endloop
   endfacet
   facet normal 1.000000e+00 0.000000e+00 0.000000e+00
      outer loop
         vertex -4.000000e+01 -2.341705e+01 -1.441845e+01
         vertex -4.000000e+01 2.064349e+01 -1.816855e+01
         vertex -4.000000e+01 -2.551695e+01 -1.025355e+01
      endloop
   endfacet
   facet normal 1.000000e+00 0.000000e+00 0.000000e+00
      outer loop
         vertex -4.000000e+01 2.064349e+01 -1.816855e+01
         vertex -4.000000e+01 2.341705e+01 -1.441845e+01
         vertex -4.000000e+01 -2.551695e+01 -1.025355e+01
      endloop
   endfacet
   facet normal 1.000000e+00 0.000000e+00 0.000000e+00
      outer loop
         vertex -4.000000e+01 -2.551695e+01 -1.025355e+01
         vertex -4.000000e+01 2.341705e+01 -1.441845e+01
         vertex -4.000000e+01 -2.688277e+01 -5.793680e+00
      endloop
   endfacet
   facet normal 1.000000e+00 0.000000e+00 0.000000e+00
      outer loop
         vertex -4.000000e+01 2.341705e+01 -1.441845e+01
         vertex -4.000000e+01 2.551695e+01 -1.025355e+01
         vertex -4.000000e+01 -2.688277e+01 -5.793680e+00
      endloop
   endfacet
   facet normal 1.000000e+00 0.000000e+00 0.000000e+00
      outer loop
         vertex -4.000000e+01 -2.688277e+01 -5.793680e+00
         vertex -4.000000e+01 2.551695e+01 -1.025355e+01
         vertex -4.000000e+01 -2.747522e+01 -1.167133e+00
      endloop
   endfacet
   facet normal 1.000000e+00 0.000000e+00 0.000000e+00
      outer loop
         vertex -4.000000e+01 2.551695e+01 -1.025355e+01
         vertex -4.000000e+01 2.688277e+01 -5.793680e+00
         vertex -4.000000e+01 -2.747522e+01 -1.167133e+00
      endloop
   endfacet
   facet normal 1.000000e+00 0.000000e+00 0.000000e+00
      outer loop
         vertex -4.000000e+01 -2.747522e+01 -1.167133e+00
         vertex -4.000000e+01 -1.801933e-15 -2.750000e+00
         vertex -4.000000e+01 -2.727726e+01 3.492990e+00
      endloop
   endfacet
   facet normal 1.000000e+00 0.000000e+00 0.000000e+00
      outer loop
         vertex -4.000000e+01 -1.801933e-15 -2.750000e+00
         vertex -4.000000e+01 -1.375000e+00 -2.381570e+00
         vertex -4.000000e+01 -2.727726e+01 3.492990e+00
      endloop
   endfacet
   facet normal 1.000000e+00 0.000000e+00 0.000000e+00
      outer loop
         vertex -4.000000e+01 -2.727726e+01 3.492990e+00
         vertex -4.000000e+01 -1.375000e+00 -2.381570e+00
         vertex -4.000000e+01 -2.629458e+01 8.052627e+00
      endloop
   endfacet
   facet normal 1.000000e+00 0.000000e+00 0.000000e+00
      outer loop
         vertex -4.000000e+01 -1.375000e+00 -2.381570e+00
         vertex -4.000000e+01 -2.381570e+00 -1.375000e+00
         vertex -4.000000e+01 -2.629458e+01 8.052627e+00
      endloop
   endfacet
   facet normal 1.000000e+00 0.000000e+00 0.000000e+00
      outer loop
         vertex -4.000000e+01 -2.629458e+01 8.052627e+00
         vertex -4.000000e+01 -2.381570e+00 -1.375000e+00
         vertex -4.000000e+01 -2.455546e+01 1.238060e+01
      endloop
   endfacet
   facet normal 1.000000e+00 0.000000e+00 0.000000e+00
      outer loop
         vertex -4.000000e+01 -2.381570e+00 -1.375000e+00
         vertex -4.000000e+01 -2.750000e+00 7.838267e-16
         vertex -4.000000e+01 -2.455546e+01 1.238060e+01
      endloop
   endfacet
   facet normal 1.000000e+00 0.000000e+00 0.000000e+00
      outer loop
         vertex -4.000000e+01 -2.455546e+01 1.238060e+01
         vertex -4.000000e+01 -2.750000e+00 7.838267e-16
         vertex -4.000000e+01 -2.210992e+01 1.635241e+01
      endloop
   endfacet
   facet normal 1.000000e+00 0.000000e+00 0.000000e+00
      outer loop
         vertex -4.000000e+01 -2.750000e+00 7.838267e-16
         vertex -4.000000e+01 -2.381570e+00 1.375000e+00
         vertex -4.000000e+01 -2.210992e+01 1.635241e+01
      endloop
   endfacet
   facet normal 1.000000e+00 0.000000e+00 0.000000e+00
      outer loop
         vertex -4.000000e+01 -2.210992e+01 1.635241e+01
         vertex -4.000000e+01 -2.381570e+00 1.375000e+00
         vertex -4.000000e+01 -1.902832e+01 1.985379e+01
      endloop
   endfacet
   facet normal 1.000000e+00 0.000000e+00 0.000000e+00
      outer loop
         vertex -4.000000e+01 -2.381570e+00 1.375000e+00
         vertex -4.000000e+01 -1.375000e+00 2.381570e+00
         vertex -4.000000e+01 -1.902832e+01 1.985379e+01
      endloop
   endfacet
   facet normal 1.000000e+00 0.000000e+00 0.000000e+00
      outer loop
         vertex -4.000000e+01 -1.902832e+01 1.985379e+01
         vertex -4.000000e+01 -1.375000e+00 2.381570e+00
         vertex -4.000000e+01 -1.539931e+01 2.278402e+01
      endloop
   endfacet
   facet normal 1.000000e+00 0.000000e+00 0.000000e+00
      outer loop
         vertex -4.000000e+01 -1.375000e+00 2.381570e+00
         vertex -4.000000e+01 -3.696735e-15 2.750000e+00
         vertex -4.000000e+01 -1.539931e+01 2.278402e+01
      endloop
   endfacet
   facet normal 1.000000e+00 0.000000e+00 0.000000e+00
      outer loop
         vertex -4.000000e+01 -1.539931e+01 2.278402e+01
         vertex -4.000000e+01 -3.696735e-15 2.750000e+00
         vertex -4.000000e+01 -1.132728e+01 2.505878e+01
      endloop
   endfacet
   facet normal 1.000000e+00 0.000000e+00 0.000000e+00
      outer loop
         vertex -4.000000e+01 -3.696735e-15 2.750000e+00
         vertex -4.000000e+01 1.375000e+00 2.381570e+00
         vertex -4.000000e+01 -1.132728e+01 2.505878e+01
      endloop
   endfacet
   facet normal 1.000000e+00 0.000000e+00 0.000000e+00
      outer loop
         vertex -4.000000e+01 -1.132728e+01 2.505878e+01
         vertex -4.000000e+01 1.375000e+00 2.381570e+00
         vertex -4.000000e+01 -6.929397e+00 2.661266e+01
      endloop
   endfacet
   facet normal 1.000000e+00 0.000000e+00 0.000000e+00
      outer loop
         vertex -4.000000e+01 1.375000e+00 2.381570e+00
         vertex -4.000000e+01 2.381570e+00 1.375000e+00
         vertex -4.000000e+01 -6.929397e+00 2.661266e+01
      endloop
   endfacet
   facet normal 1.000000e+00 0.000000e+00 0.000000e+00
      outer loop
         vertex -4.000000e+01 -6.929397e+00 2.661266e+01
         vertex -4.000000e+01 2.381570e+00 1.375000e+00
         vertex -4.000000e+01 -2.332163e+00 2.740093e+01
      endloop
   endfacet
   facet normal 1.000000e+00 0.000000e+00 0.000000e+00
      outer loop
         vertex -4.000000e+01 2.381570e+00 1.375000e+00
         vertex -4.000000e+01 2.750000e+00 1.457382e-15
         vertex -4.000000e+01 -2.332163e+00 2.740093e+01
      endloop
   endfacet
   facet normal 1.000000e+00 0.000000e+00 0.000000e+00
      outer loop
         vertex -4.000000e+01 -2.332163e+00 2.740093e+01
         vertex -4.000000e+01 2.750000e+00 1.457382e-15
         vertex -4.000000e+01 2.332163e+00 2.740093e+01
      endloop
   endfacet
   facet normal 1.000000e+00 0.000000e+00 0.000000e+00
      outer loop
         vertex -4.000000e+01 -2.747522e+01 -1.167133e+00
         vertex -4.000000e+01 2.688277e+01 -5.793680e+00
         vertex -4.000000e+01 -1.801933e-15 -2.750000e+00
      endloop
   endfacet
   facet normal 1.000000e+00 0.000000e+00 0.000000e+00
      outer loop
         vertex -4.000000e+01 -1.801933e-15 -2.750000e+00
         vertex -4.000000e+01 2.688277e+01 -5.793680e+00
         vertex -4.000000e+01 1.375000e+00 -2.381570e+00
      endloop
   endfacet
   facet normal 1.000000e+00 0.000000e+00 0.000000e+00
      outer loop
         vertex -4.000000e+01 2.688277e+01 -5.793680e+00
         vertex -4.000000e+01 2.747522e+01 -1.167133e+00
         vertex -4.000000e+01 1.375000e+00 -2.381570e+00
      endloop
   endfacet
   facet normal 1.000000e+00 0.000000e+00 0.000000e+00
      outer loop
         vertex -4.000000e+01 1.375000e+00 -2.381570e+00
         vertex -4.000000e+01 2.747522e+01 -1.167133e+00
         vertex -4.000000e+01 2.381570e+00 -1.375000e+00
      endloop
   endfacet
   facet normal 1.000000e+00 0.000000e+00 0.000000e+00
      outer loop
         vertex -4.000000e+01 2.747522e+01 -1.167133e+00
         vertex -4.000000e+01 2.727726e+01 3.492990e+00
         vertex -4.000000e+01 2.381570e+00 -1.375000e+00
      endloop
   endfacet
   facet normal 1.000000e+00 0.000000e+00 0.000000e+00
      outer loop
         vertex -4.000000e+01 2.381570e+00 -1.375000e+00
         vertex -4.000000e+01 2.727726e+01 3.492990e+00
         vertex -4.000000e+01 2.750000e+00 1.457382e-15
      endloop
   endfacet
   facet normal 1.000000e+00 0.000000e+00 0.000000e+00
      outer loop
         vertex -4.000000e+01 2.727726e+01 3.492990e+00
         vertex -4.000000e+01 2.629458e+01 8.052627e+00
         vertex -4.000000e+01 2.750000e+00 1.457382e-15
      endloop
   endfacet
   facet normal 1.000000e+00 0.000000e+00 0.000000e+00
      outer loop
         vertex -4.000000e+01 2.750000e+00 1.457382e-15
         vertex -4.000000e+01 2.629458e+01 8.052627e+00
         vertex -4.000000e+01 2.332163e+00 2.740093e+01
      endloop
   endfacet
   facet normal 1.000000e+00 0.000000e+00 0.000000e+00
      outer loop
         vertex -4.000000e+01 2.629458e+01 8.052627e+00
         vertex -4.000000e+01 2.455546e+01 1.238060e+01
         vertex -4.000000e+01 2.332163e+00 2.740093e+01
      endloop
   endfacet
   facet normal 1.000000e+00 0.000000e+00 0.000000e+00
      outer loop
         vertex -4.000000e+01 2.332163e+00 2.740093e+01
         vertex -4.000000e+01 2.455546e+01 1.238060e+01
         vertex -4.000000e+01 6.929397e+00 2.661266e+01
      endloop
   endfacet
   facet normal 1.000000e+00 0.000000e+00 0.000000e+00
      outer loop
         vertex -4.000000e+01 2.455546e+01 1.238060e+01
         vertex -4.000000e+01 2.210992e+01 1.635241e+01
         vertex -4.000000e+01 6.929397e+00 2.661266e+01
      endloop
   endfacet
   facet normal 1.000000e+00 0.000000e+00 0.000000e+00
      outer loop
         vertex -4.000000e+01 6.929397e+00 2.661266e+01
         vertex -4.000000e+01 2.210992e+01 1.635241e+01
         vertex -4.000000e+01 1.132728e+01 2.505878e+01
      endloop
   endfacet
   facet normal 1.000000e+00 0.000000e+00 0.000000e+00
      outer loop
         vertex -4.000000e+01 2.210992e+01 1.635241e+01
         vertex -4.000000e+01 1.902832e+01 1.985379e+01
         vertex -4.000000e+01 1.132728e+01 2.505878e+01
      endloop
   endfacet
   facet normal 1.000000e+00 0.000000e+00 0.000000e+00
      outer loop
         vertex -4.000000e+01 1.132728e+01 2.505878e+01
         vertex -4.000000e+01 1.902832e+01 1.985379e+01
         vertex -4.000000e+01 1.539931e+01 2.278402e+01
      endloop
   endfacet
   facet normal 0.000000e+00 2.588190e-01 9.659258e-01
      outer loop
         vertex -5.200000e+01 -1.375000e+00 -2.381570e+00
         vertex -4.000000e+01 -1.375000e+00 -2.381570e+00
         vertex -4.000000e+01 -2.138711e-15 -2.750000e+00
      endloop
   endfacet
   facet normal 0.000000e+00 2.588190e-01 9.659258e-01
      outer loop
         vertex -5.200000e+01 -2.138711e-15 -2.750000e+00
         vertex -5.200000e+01 -1.375000e+00 -2.381570e+00
         vertex -4.000000e+01 -2.138711e-15 -2.750000e+00
      endloop
   endfacet
   facet normal 0.000000e+00 7.071068e-01 7.071068e-01
      outer loop
         vertex -5.200000e+01 -2.381570e+00 -1.375000e+00
         vertex -4.000000e+01 -2.381570e+00 -1.375000e+00
         vertex -4.000000e+01 -1.375000e+00 -2.381570e+00
      endloop
   endfacet
   facet normal 0.000000e+00 7.071068e-01 7.071068e-01
      outer loop
         vertex -5.200000e+01 -1.375000e+00 -2.381570e+00
         vertex -5.200000e+01 -2.381570e+00 -1.375000e+00
         vertex -4.000000e+01 -1.375000e+00 -2.381570e+00
      endloop
   endfacet
   facet normal 0.000000e+00 9.659258e-01 2.588190e-01
      outer loop
         vertex -5.200000e+01 -2.750000e+00 7.838267e-16
         vertex -4.000000e+01 -2.750000e+00 7.838267e-16
         vertex -4.000000e+01 -2.381570e+00 -1.375000e+00
      endloop
   endfacet
   facet normal 0.000000e+00 9.659258e-01 2.588190e-01
      outer loop
         vertex -5.200000e+01 -2.381570e+00 -1.375000e+00
         vertex -5.200000e+01 -2.750000e+00 7.838267e-16
         vertex -4.000000e+01 -2.381570e+00 -1.375000e+00
      endloop
   endfacet
   facet normal 0.000000e+00 9.659258e-01 -2.588190e-01
      outer loop
         vertex -5.200000e+01 -2.381570e+00 1.375000e+00
         vertex -4.000000e+01 -2.381570e+00 1.375000e+00
         vertex -4.000000e+01 -2.750000e+00 7.838267e-16
      endloop
   endfacet
   facet normal 0.000000e+00 9.659258e-01 -2.588190e-01
      outer loop
         vertex -5.200000e+01 -2.750000e+00 7.838267e-16
         vertex -5.200000e+01 -2.381570e+00 1.375000e+00
         vertex -4.000000e+01 -2.750000e+00 7.838267e-16
      endloop
   endfacet
   facet normal 0.000000e+00 7.071068e-01 -7.071068e-01
      outer loop
         vertex -5.200000e+01 -1.375000e+00 2.381570e+00
         vertex -4.000000e+01 -1.375000e+00 2.381570e+00
         vertex -4.000000e+01 -2.381570e+00 1.375000e+00
      endloop
   endfacet
   facet normal 0.000000e+00 7.071068e-01 -7.071068e-01
      outer loop
         vertex -5.200000e+01 -2.381570e+00 1.375000e+00
         vertex -5.200000e+01 -1.375000e+00 2.381570e+00
         vertex -4.000000e+01 -2.381570e+00 1.375000e+00
      endloop
   endfacet
   facet normal 0.000000e+00 2.588190e-01 -9.659258e-01
      outer loop
         vertex -5.200000e+01 -3.696735e-15 2.750000e+00
         vertex -4.000000e+01 -3.696735e-15 2.750000e+00
         vertex -4.000000e+01 -1.375000e+00 2.381570e+00
      endloop
   endfacet
   facet normal 0.000000e+00 2.588190e-01 -9.659258e-01
      outer loop
         vertex -5.200000e+01 -1.375000e+00 2.381570e+00
         vertex -5.200000e+01 -3.696735e-15 2.750000e+00
         vertex -4.000000e+01 -1.375000e+00 2.381570e+00
      endloop
   endfacet
   facet normal -0.000000e+00 -2.588190e-01 -9.659258e-01
      outer loop
         vertex -5.200000e+01 1.375000e+00 2.381570e+00
         vertex -4.000000e+01 1.375000e+00 2.381570e+00
         vertex -4.000000e+01 -3.696735e-15 2.750000e+00
      endloop
   endfacet
   facet normal 0.000000e+00 -2.588190e-01 -9.659258e-01
      outer loop
         vertex -5.200000e+01 -3.696735e-15 2.750000e+00
         vertex -5.200000e+01 1.375000e+00 2.381570e+00
         vertex -4.000000e+01 -3.696735e-15 2.750000e+00
      endloop
   endfacet
   facet normal -0.000000e+00 -7.071068e-01 -7.071068e-01
      outer loop
         vertex -5.200000e+01 2.381570e+00 1.375000e+00
         vertex -4.000000e+01 2.381570e+00 1.375000e+00
         vertex -4.000000e+01 1.375000e+00 2.381570e+00
      endloop
   endfacet
   facet normal 0.000000e+00 -7.071068e-01 -7.071068e-01
      outer loop
         vertex -5.200000e+01 1.375000e+00 2.381570e+00
         vertex -5.200000e+01 2.381570e+00 1.375000e+00
         vertex -4.000000e+01 1.375000e+00 2.381570e+00
      endloop
   endfacet
   facet normal -0.000000e+00 -9.659258e-01 -2.588190e-01
      outer loop
         vertex -5.200000e+01 2.750000e+00 1.457382e-15
         vertex -4.000000e+01 2.750000e+00 1.457382e-15
         vertex -4.000000e+01 2.381570e+00 1.375000e+00
      endloop
   endfacet
   facet normal 0.000000e+00 -9.659258e-01 -2.588190e-01
      outer loop
         vertex -5.200000e+01 2.381570e+00 1.375000e+00
         vertex -5.200000e+01 2.750000e+00 1.457382e-15
         vertex -4.000000e+01 2.381570e+00 1.375000e+00
      endloop
   endfacet
   facet normal 0.000000e+00 -9.659258e-01 2.588190e-01
      outer loop
         vertex -5.200000e+01 2.381570e+00 -1.375000e+00
         vertex -4.000000e+01 2.381570e+00 -1.375000e+00
         vertex -4.000000e+01 2.750000e+00 1.457382e-15
      endloop
   endfacet
   facet normal 0.000000e+00 -9.659258e-01 2.588190e-01
      outer loop
         vertex -5.200000e+01 2.750000e+00 1.457382e-15
         vertex -5.200000e+01 2.381570e+00 -1.375000e+00
         vertex -4.000000e+01 2.750000e+00 1.457382e-15
      endloop
   endfacet
   facet normal 0.000000e+00 -7.071068e-01 7.071068e-01
      outer loop
         vertex -5.200000e+01 1.375000e+00 -2.381570e+00
         vertex -4.000000e+01 1.375000e+00 -2.381570e+00
         vertex -4.000000e+01 2.381570e+00 -1.375000e+00
      endloop
   endfacet
   facet normal 0.000000e+00 -7.071068e-01 7.071068e-01
      outer loop
         vertex -5.200000e+01 2.381570e+00 -1.375000e+00
         vertex -5.200000e+01 1.375000e+00 -2.381570e+00
         vertex -4.000000e+01 2.381570e+00 -1.375000e+00
      endloop
   endfacet
   facet normal 0.000000e+00 -2.588190e-01 9.659258e-01
      outer loop
         vertex -5.200000e+01 -1.465156e-15 -2.750000e+00
         vertex -4.000000e+01 -1.465156e-15 -2.750000e+00
         vertex -4.000000e+01 1.375000e+00 -2.381570e+00
      endloop
   endfacet
   facet normal 0.000000e+00 -2.588190e-01 9.659258e-01
      outer loop
         vertex -5.200000e+01 1.375000e+00 -2.381570e+00
         vertex -5.200000e+01 -1.465156e-15 -2.750000e+00
         vertex -4.000000e+01 1.375000e+00 -2.381570e+00
      endloop
   endfacet
   facet normal -0.000000e+00 -8.480607e-02 -9.963975e-01
      outer loop
         vertex -4.000000e+01 -2.138711e-15 -2.750000e+01
         vertex -4.000000e+01 -4.647522e+00 -2.710444e+01
         vertex -4.600000e+01 -4.647522e+00 -2.710444e+01
      endloop
   endfacet
   facet normal 0.000000e+00 -8.480607e-02 -9.963975e-01
      outer loop
         vertex -4.000000e+01 -2.138711e-15 -2.750000e+01
         vertex -4.600000e+01 -4.647522e+00 -2.710444e+01
         vertex -4.600000e+01 -2.138711e-15 -2.750000e+01
      endloop
   endfacet
   facet normal -0.000000e+00 -2.519778e-01 -9.677330e-01
      outer loop
         vertex -4.000000e+01 -4.647522e+00 -2.710444e+01
         vertex -4.000000e+01 -9.161345e+00 -2.592913e+01
         vertex -4.600000e+01 -9.161345e+00 -2.592913e+01
      endloop
   endfacet
   facet normal 0.000000e+00 -2.519778e-01 -9.677330e-01
      outer loop
         vertex -4.000000e+01 -4.647522e+00 -2.710444e+01
         vertex -4.600000e+01 -9.161345e+00 -2.592913e+01
         vertex -4.600000e+01 -4.647522e+00 -2.710444e+01
      endloop
   endfacet
   facet normal -0.000000e+00 -4.119013e-01 -9.112285e-01
      outer loop
         vertex -4.000000e+01 -9.161345e+00 -2.592913e+01
         vertex -4.000000e+01 -1.341161e+01 -2.400789e+01
         vertex -4.600000e+01 -1.341161e+01 -2.400789e+01
      endloop
   endfacet
   facet normal 0.000000e+00 -4.119013e-01 -9.112285e-01
      outer loop
         vertex -4.000000e+01 -9.161345e+00 -2.592913e+01
         vertex -4.600000e+01 -1.341161e+01 -2.400789e+01
         vertex -4.600000e+01 -9.161345e+00 -2.592913e+01
      endloop
   endfacet
   facet normal -0.000000e+00 -5.599749e-01 -8.285096e-01
      outer loop
         vertex -4.000000e+01 -1.341161e+01 -2.400789e+01
         vertex -4.000000e+01 -1.727605e+01 -2.139598e+01
         vertex -4.600000e+01 -1.727605e+01 -2.139598e+01
      endloop
   endfacet
   facet normal 0.000000e+00 -5.599749e-01 -8.285096e-01
      outer loop
         vertex -4.000000e+01 -1.341161e+01 -2.400789e+01
         vertex -4.600000e+01 -1.727605e+01 -2.139598e+01
         vertex -4.600000e+01 -1.341161e+01 -2.400789e+01
      endloop
   endfacet
   facet normal -0.000000e+00 -6.919390e-01 -7.219560e-01
      outer loop
         vertex -4.000000e+01 -1.727605e+01 -2.139598e+01
         vertex -4.000000e+01 -2.064349e+01 -1.816855e+01
         vertex -4.600000e+01 -2.064349e+01 -1.816855e+01
      endloop
   endfacet
   facet normal 0.000000e+00 -6.919390e-01 -7.219560e-01
      outer loop
         vertex -4.000000e+01 -1.727605e+01 -2.139598e+01
         vertex -4.600000e+01 -2.064349e+01 -1.816855e+01
         vertex -4.600000e+01 -1.727605e+01 -2.139598e+01
      endloop
   endfacet
   facet normal -0.000000e+00 -8.039970e-01 -5.946333e-01
      outer loop
         vertex -4.000000e+01 -2.064349e+01 -1.816855e+01
         vertex -4.000000e+01 -2.341705e+01 -1.441845e+01
         vertex -4.600000e+01 -2.341705e+01 -1.441845e+01
      endloop
   endfacet
   facet normal 0.000000e+00 -8.039970e-01 -5.946333e-01
      outer loop
         vertex -4.000000e+01 -2.064349e+01 -1.816855e+01
         vertex -4.600000e+01 -2.341705e+01 -1.441845e+01
         vertex -4.600000e+01 -2.064349e+01 -1.816855e+01
      endloop
   endfacet
   facet normal -0.000000e+00 -8.929258e-01 -4.502038e-01
      outer loop
         vertex -4.000000e+01 -2.341705e+01 -1.441845e+01
         vertex -4.000000e+01 -2.551695e+01 -1.025355e+01
         vertex -4.600000e+01 -2.551695e+01 -1.025355e+01
      endloop
   endfacet
   facet normal 0.000000e+00 -8.929258e-01 -4.502038e-01
      outer loop
         vertex -4.000000e+01 -2.341705e+01 -1.441845e+01
         vertex -4.600000e+01 -2.551695e+01 -1.025355e+01
         vertex -4.600000e+01 -2.341705e+01 -1.441845e+01
      endloop
   endfacet
   facet normal -0.000000e+00 -9.561668e-01 -2.928226e-01
      outer loop
         vertex -4.000000e+01 -2.551695e+01 -1.025355e+01
         vertex -4.000000e+01 -2.688277e+01 -5.793680e+00
         vertex -4.600000e+01 -2.688277e+01 -5.793680e+00
      endloop
   endfacet
   facet normal 0.000000e+00 -9.561668e-01 -2.928226e-01
      outer loop
         vertex -4.000000e+01 -2.551695e+01 -1.025355e+01
         vertex -4.600000e+01 -2.688277e+01 -5.793680e+00
         vertex -4.600000e+01 -2.551695e+01 -1.025355e+01
      endloop
   endfacet
   facet normal -0.000000e+00 -9.919004e-01 -1.270179e-01
      outer loop
         vertex -4.000000e+01 -2.688277e+01 -5.793680e+00
         vertex -4.000000e+01 -2.747522e+01 -1.167133e+00
         vertex -4.600000e+01 -2.747522e+01 -1.167133e+00
      endloop
   endfacet
   facet normal 0.000000e+00 -9.919004e-01 -1.270179e-01
      outer loop
         vertex -4.000000e+01 -2.688277e+01 -5.793680e+00
         vertex -4.600000e+01 -2.747522e+01 -1.167133e+00
         vertex -4.600000e+01 -2.688277e+01 -5.793680e+00
      endloop
   endfacet
   facet normal 0.000000e+00 -9.990990e-01 4.244127e-02
      outer loop
         vertex -4.000000e+01 -2.747522e+01 -1.167133e+00
         vertex -4.000000e+01 -2.727726e+01 3.492990e+00
         vertex -4.600000e+01 -2.727726e+01 3.492990e+00
      endloop
   endfacet
   facet normal 0.000000e+00 -9.990990e-01 4.244127e-02
      outer loop
         vertex -4.000000e+01 -2.747522e+01 -1.167133e+00
         vertex -4.600000e+01 -2.727726e+01 3.492990e+00
         vertex -4.600000e+01 -2.747522e+01 -1.167133e+00
      endloop
   endfacet
   facet normal 0.000000e+00 -9.775552e-01 2.106794e-01
      outer loop
         vertex -4.000000e+01 -2.727726e+01 3.492990e+00
         vertex -4.000000e+01 -2.629458e+01 8.052627e+00
         vertex -4.600000e+01 -2.629458e+01 8.052627e+00
      endloop
   endfacet
   facet normal 0.000000e+00 -9.775552e-01 2.106794e-01
      outer loop
         vertex -4.000000e+01 -2.727726e+01 3.492990e+00
         vertex -4.600000e+01 -2.629458e+01 8.052627e+00
         vertex -4.600000e+01 -2.727726e+01 3.492990e+00
      endloop
   endfacet
   facet normal 0.000000e+00 -9.278891e-01 3.728562e-01
      outer loop
         vertex -4.000000e+01 -2.629458e+01 8.052627e+00
         vertex -4.000000e+01 -2.455546e+01 1.238060e+01
         vertex -4.600000e+01 -2.455546e+01 1.238060e+01
      endloop
   endfacet
   facet normal 0.000000e+00 -9.278891e-01 3.728562e-01
      outer loop
         vertex -4.000000e+01 -2.629458e+01 8.052627e+00
         vertex -4.600000e+01 -2.455546e+01 1.238060e+01
         vertex -4.600000e+01 -2.629458e+01 8.052627e+00
      endloop
   endfacet
   facet normal 0.000000e+00 -8.515291e-01 5.243074e-01
      outer loop
         vertex -4.000000e+01 -2.455546e+01 1.238060e+01
         vertex -4.000000e+01 -2.210992e+01 1.635241e+01
         vertex -4.600000e+01 -2.210992e+01 1.635241e+01
      endloop
   endfacet
   facet normal 0.000000e+00 -8.515291e-01 5.243074e-01
      outer loop
         vertex -4.000000e+01 -2.455546e+01 1.238060e+01
         vertex -4.600000e+01 -2.210992e+01 1.635241e+01
         vertex -4.600000e+01 -2.455546e+01 1.238060e+01
      endloop
   endfacet
   facet normal 0.000000e+00 -7.506722e-01 6.606748e-01
      outer loop
         vertex -4.000000e+01 -2.210992e+01 1.635241e+01
         vertex -4.000000e+01 -1.902832e+01 1.985379e+01
         vertex -4.600000e+01 -1.902832e+01 1.985379e+01
      endloop
   endfacet
   facet normal 0.000000e+00 -7.506722e-01 6.606748e-01
      outer loop
         vertex -4.000000e+01 -2.210992e+01 1.635241e+01
         vertex -4.600000e+01 -1.902832e+01 1.985379e+01
         vertex -4.600000e+01 -2.210992e+01 1.635241e+01
      endloop
   endfacet
   facet normal 0.000000e+00 -6.282201e-01 7.780357e-01
      outer loop
         vertex -4.000000e+01 -1.902832e+01 1.985379e+01
         vertex -4.000000e+01 -1.539931e+01 2.278402e+01
         vertex -4.600000e+01 -1.539931e+01 2.278402e+01
      endloop
   endfacet
   facet normal 0.000000e+00 -6.282201e-01 7.780357e-01
      outer loop
         vertex -4.000000e+01 -1.902832e+01 1.985379e+01
         vertex -4.600000e+01 -1.539931e+01 2.278402e+01
         vertex -4.600000e+01 -1.902832e+01 1.985379e+01
      endloop
   endfacet
   facet normal 0.000000e+00 -4.876947e-01 8.730142e-01
      outer loop
         vertex -4.000000e+01 -1.539931e+01 2.278402e+01
         vertex -4.000000e+01 -1.132728e+01 2.505878e+01
         vertex -4.600000e+01 -1.132728e+01 2.505878e+01
      endloop
   endfacet
   facet normal 0.000000e+00 -4.876947e-01 8.730142e-01
      outer loop
         vertex -4.000000e+01 -1.539931e+01 2.278402e+01
         vertex -4.600000e+01 -1.132728e+01 2.505878e+01
         vertex -4.600000e+01 -1.539931e+01 2.278402e+01
      endloop
   endfacet
   facet normal 0.000000e+00 -3.331399e-01 9.428774e-01
      outer loop
         vertex -4.000000e+01 -1.132728e+01 2.505878e+01
         vertex -4.000000e+01 -6.929397e+00 2.661266e+01
         vertex -4.600000e+01 -6.929397e+00 2.661266e+01
      endloop
   endfacet
   facet normal 0.000000e+00 -3.331399e-01 9.428774e-01
      outer loop
         vertex -4.000000e+01 -1.132728e+01 2.505878e+01
         vertex -4.600000e+01 -6.929397e+00 2.661266e+01
         vertex -4.600000e+01 -1.132728e+01 2.505878e+01
      endloop
   endfacet
   facet normal 0.000000e+00 -1.690008e-01 9.856159e-01
      outer loop
         vertex -4.000000e+01 -6.929397e+00 2.661266e+01
         vertex -4.000000e+01 -2.332163e+00 2.740093e+01
         vertex -4.600000e+01 -2.332163e+00 2.740093e+01
      endloop
   endfacet
   facet normal 0.000000e+00 -1.690008e-01 9.856159e-01
      outer loop
         vertex -4.000000e+01 -6.929397e+00 2.661266e+01
         vertex -4.600000e+01 -2.332163e+00 2.740093e+01
         vertex -4.600000e+01 -6.929397e+00 2.661266e+01
      endloop
   endfacet
   facet normal 0.000000e+00 0.000000e+00 1.000000e+00
      outer loop
         vertex -4.000000e+01 -2.332163e+00 2.740093e+01
         vertex -4.000000e+01 2.332163e+00 2.740093e+01
         vertex -4.600000e+01 2.332163e+00 2.740093e+01
      endloop
   endfacet
   facet normal 0.000000e+00 0.000000e+00 1.000000e+00
      outer loop
         vertex -4.000000e+01 -2.332163e+00 2.740093e+01
         vertex -4.600000e+01 2.332163e+00 2.740093e+01
         vertex -4.600000e+01 -2.332163e+00 2.740093e+01
      endloop
   endfacet
   facet normal 0.000000e+00 1.690008e-01 9.856159e-01
      outer loop
         vertex -4.000000e+01 2.332163e+00 2.740093e+01
         vertex -4.000000e+01 6.929397e+00 2.661266e+01
         vertex -4.600000e+01 6.929397e+00 2.661266e+01
      endloop
   endfacet
   facet normal 0.000000e+00 1.690008e-01 9.856159e-01
      outer loop
         vertex -4.000000e+01 2.332163e+00 2.740093e+01
         vertex -4.600000e+01 6.929397e+00 2.661266e+01
         vertex -4.600000e+01 2.332163e+00 2.740093e+01
      endloop
   endfacet
   facet normal 0.000000e+00 3.331399e-01 9.428774e-01
      outer loop
         vertex -4.000000e+01 6.929397e+00 2.661266e+01
         vertex -4.000000e+01 1.132728e+01 2.505878e+01
         vertex -4.600000e+01 1.132728e+01 2.505878e+01
      endloop
   endfacet
   facet normal 0.000000e+00 3.331399e-01 9.428774e-01
      outer loop
         vertex -4.000000e+01 6.929397e+00 2.661266e+01
         vertex -4.600000e+01 1.132728e+01 2.505878e+01
         vertex -4.600000e+01 6.929397e+00 2.661266e+01
      endloop
   endfacet
   facet normal 0.000000e+00 4.876947e-01 8.730142e-01
      outer loop
         vertex -4.000000e+01 1.132728e+01 2.505878e+01
         vertex -4.000000e+01 1.539931e+01 2.278402e+01
         vertex -4.600000e+01 1.539931e+01 2.278402e+01
      endloop
   endfacet
   facet normal 0.000000e+00 4.876947e-01 8.730142e-01
      outer loop
         vertex -4.000000e+01 1.132728e+01 2.505878e+01
         vertex -4.600000e+01 1.539931e+01 2.278402e+01
         vertex -4.600000e+01 1.132728e+01 2.505878e+01
      endloop
   endfacet
   facet normal 0.000000e+00 6.282201e-01 7.780357e-01
      outer loop
         vertex -4.000000e+01 1.539931e+01 2.278402e+01
         vertex -4.000000e+01 1.902832e+01 1.985379e+01
         vertex -4.600000e+01 1.902832e+01 1.985379e+01
      endloop
   endfacet
   facet normal 0.000000e+00 6.282201e-01 7.780357e-01
      outer loop
         vertex -4.000000e+01 1.539931e+01 2.278402e+01
         vertex -4.600000e+01 1.902832e+01 1.985379e+01
         vertex -4.600000e+01 1.539931e+01 2.278402e+01
      endloop
   endfacet
   facet normal 0.000000e+00 7.506722e-01 6.606748e-01
      outer loop
         vertex -4.000000e+01 1.902832e+01 1.985379e+01
         vertex -4.000000e+01 2.210992e+01 1.635241e+01
         vertex -4.600000e+01 2.210992e+01 1.635241e+01
      endloop
   endfacet
   facet normal 0.000000e+00 7.506722e-01 6.606748e-01
      outer loop
         vertex -4.000000e+01 1.902832e+01 1.985379e+01
         vertex -4.600000e+01 2.210992e+01 1.635241e+01
         vertex -4.600000e+01 1.902832e+01 1.985379e+01
      endloop
   endfacet
   facet normal 0.000000e+00 8.515291e-01 5.243074e-01
      outer loop
         vertex -4.000000e+01 2.210992e+01 1.635241e+01
         vertex -4.000000e+01 2.455546e+01 1.238060e+01
         vertex -4.600000e+01 2.455546e+01 1.238060e+01
      endloop
   endfacet
   facet normal 0.000000e+00 8.515291e-01 5.243074e-01
      outer loop
         vertex -4.000000e+01 2.210992e+01 1.635241e+01
         vertex -4.600000e+01 2.455546e+01 1.238060e+01
         vertex -4.600000e+01 2.210992e+01 1.635241e+01
      endloop
   endfacet
   facet normal 0.000000e+00 9.278891e-01 3.728562e-01
      outer loop
         vertex -4.000000e+01 2.455546e+01 1.238060e+01
         vertex -4.000000e+01 2.629458e+01 8.052627e+00
         vertex -4.600000e+01 2.629458e+01 8.052627e+00
      endloop
   endfacet
   facet normal 0.000000e+00 9.278891e-01 3.728562e-01
      outer loop
         vertex -4.000000e+01 2.455546e+01 1.238060e+01
         vertex -4.600000e+01 2.629458e+01 8.052627e+00
         vertex -4.600000e+01 2.455546e+01 1.238060e+01
      endloop
   endfacet
   facet normal 0.000000e+00 9.775552e-01 2.106794e-01
      outer loop
         vertex -4.000000e+01 2.629458e+01 8.052627e+00
         vertex -4.000000e+01 2.727726e+01 3.492990e+00
         vertex -4.600000e+01 2.727726e+01 3.492990e+00
      endloop
   endfacet
   facet normal 0.000000e+00 9.775552e-01 2.106794e-01
      outer loop
         vertex -4.000000e+01 2.629458e+01 8.052627e+00
         vertex -4.600000e+01 2.727726e+01 3.492990e+00
         vertex -4.600000e+01 2.629458e+01 8.052627e+00
      endloop
   endfacet
   facet normal 0.000000e+00 9.990990e-01 4.244127e-02
      outer loop
         vertex -4.000000e+01 2.727726e+01 3.492990e+00
         vertex -4.000000e+01 2.747522e+01 -1.167133e+00
         vertex -4.600000e+01 2.747522e+01 -1.167133e+00
      endloop
   endfacet
   facet normal 0.000000e+00 9.990990e-01 4.244127e-02
      outer loop
         vertex -4.000000e+01 2.727726e+01 3.492990e+00
         vertex -4.600000e+01 2.747522e+01 -1.167133e+00
         vertex -4.600000e+01 2.727726e+01 3.492990e+00
      endloop
   endfacet
   facet normal 0.000000e+00 9.919004e-01 -1.270179e-01
      outer loop
         vertex -4.000000e+01 2.747522e+01 -1.167133e+00
         vertex -4.000000e+01 2.688277e+01 -5.793680e+00
         vertex -4.600000e+01 2.688277e+01 -5.793680e+00
      endloop
   endfacet
   facet normal 0.000000e+00 9.919004e-01 -1.270179e-01
      outer loop
         vertex -4.000000e+01 2.747522e+01 -1.167133e+00
         vertex -4.600000e+01 2.688277e+01 -5.793680e+00
         vertex -4.600000e+01 2.747522e+01 -1.167133e+00
      endloop
   endfacet
   facet normal 0.000000e+00 9.561668e-01 -2.928226e-01
      outer loop
         vertex -4.000000e+01 2.688277e+01 -5.793680e+00
         vertex -4.000000e+01 2.551695e+01 -1.025355e+01
         vertex -4.600000e+01 2.551695e+01 -1.025355e+01
      endloop
   endfacet
   facet normal 0.000000e+00 9.561668e-01 -2.928226e-01
      outer loop
         vertex -4.000000e+01 2.688277e+01 -5.793680e+00
         vertex -4.600000e+01 2.551695e+01 -1.025355e+01
         vertex -4.600000e+01 2.688277e+01 -5.793680e+00
      endloop
   endfacet
   facet normal 0.000000e+00 8.929258e-01 -4.502038e-01
      outer loop
         vertex -4.000000e+01 2.551695e+01 -1.025355e+01
         vertex -4.000000e+01 2.341705e+01 -1.441845e+01
         vertex -4.600000e+01 2.341705e+01 -1.441845e+01
      endloop
   endfacet
   facet normal 0.000000e+00 8.929258e-01 -4.502038e-01
      outer loop
         vertex -4.000000e+01 2.551695e+01 -1.025355e+01
         vertex -4.600000e+01 2.341705e+01 -1.441845e+01
         vertex -4.600000e+01 2.551695e+01 -1.025355e+01
      endloop
   endfacet
   facet normal 0.000000e+00 8.039970e-01 -5.946333e-01
      outer loop
         vertex -4.000000e+01 2.341705e+01 -1.441845e+01
         vertex -4.000000e+01 2.064349e+01 -1.816855e+01
         vertex -4.600000e+01 2.064349e+01 -1.816855e+01
      endloop
   endfacet
   facet normal 0.000000e+00 8.039970e-01 -5.946333e-01
      outer loop
         vertex -4.000000e+01 2.341705e+01 -1.441845e+01
         vertex -4.600000e+01 2.064349e+01 -1.816855e+01
         vertex -4.600000e+01 2.341705e+01 -1.441845e+01
      endloop
   endfacet
   facet normal 0.000000e+00 6.919390e-01 -7.219560e-01
      outer loop
         vertex -4.000000e+01 2.064349e+01 -1.816855e+01
         vertex -4.000000e+01 1.727605e+01 -2.139598e+01
         vertex -4.600000e+01 1.727605e+01 -2.139598e+01
      endloop
   endfacet
   facet normal 0.000000e+00 6.919390e-01 -7.219560e-01
      outer loop
         vertex -4.000000e+01 2.064349e+01 -1.816855e+01
         vertex -4.600000e+01 1.727605e+01 -2.139598e+01
         vertex -4.600000e+01 2.064349e+01 -1.816855e+01
      endloop
   endfacet
   facet normal 0.000000e+00 5.599749e-01 -8.285096e-01
      outer loop
         vertex -4.000000e+01 1.727605e+01 -2.139598e+01
         vertex -4.000000e+01 1.341161e+01 -2.400789e+01
         vertex -4.600000e+01 1.341161e+01 -2.400789e+01
      endloop
   endfacet
   facet normal 0.000000e+00 5.599749e-01 -8.285096e-01
      outer loop
         vertex -4.000000e+01 1.727605e+01 -2.139598e+01
         vertex -4.600000e+01 1.341161e+01 -2.400789e+01
         vertex -4.600000e+01 1.727605e+01 -2.139598e+01
      endloop
   endfacet
   facet normal 0.000000e+00 4.119013e-01 -9.112285e-01
      outer loop
         vertex -4.000000e+01 1.341161e+01 -2.400789e+01
         vertex -4.000000e+01 9.161345e+00 -2.592913e+01
         vertex -4.600000e+01 9.161345e+00 -2.592913e+01
      endloop
   endfacet
   facet normal 0.000000e+00 4.119013e-01 -9.112285e-01
      outer loop
         vertex -4.000000e+01 1.341161e+01 -2.400789e+01
         vertex -4.600000e+01 9.161345e+00 -2.592913e+01
         vertex -4.600000e+01 1.341161e+01 -2.400789e+01
      endloop
   endfacet
   facet normal 0.000000e+00 2.519778e-01 -9.677330e-01
      outer loop
         vertex -4.000000e+01 9.161345e+00 -2.592913e+01
         vertex -4.000000e+01 4.647522e+00 -2.710444e+01
         vertex -4.600000e+01 4.647522e+00 -2.710444e+01
      endloop
   endfacet
   facet normal 0.000000e+00 2.519778e-01 -9.677330e-01
      outer loop
         vertex -4.000000e+01 9.161345e+00 -2.592913e+01
         vertex -4.600000e+01 4.647522e+00 -2.710444e+01
         vertex -4.600000e+01 9.161345e+00 -2.592913e+01
      endloop
   endfacet
   facet normal 0.000000e+00 8.480607e-02 -9.963975e-01
      outer loop
         vertex -4.000000e+01 4.647522e+00 -2.710444e+01
         vertex -4.000000e+01 4.596846e-15 -2.750000e+01
         vertex -4.600000e+01 4.596846e-15 -2.750000e+01
      endloop
   endfacet
   facet normal 0.000000e+00 8.480607e-02 -9.963975e-01
      outer loop
         vertex -4.000000e+01 4.647522e+00 -2.710444e+01
         vertex -4.600000e+01 4.596846e-15 -2.750000e+01
         vertex -4.600000e+01 4.647522e+00 -2.710444e+01
      endloop
   endfacet
   facet normal -1.000000e+00 0.000000e+00 0.000000e+00
      outer loop
         vertex -5.200000e+01 -2.167450e+00 5.594833e+00
         vertex -5.200000e+01 -2.873499e-15 6.000000e+00
         vertex -5.200000e+01 -4.042174e+00 4.434053e+00
      endloop
   endfacet
   facet normal -1.000000e+00 -0.000000e+00 0.000000e+00
      outer loop
         vertex -5.200000e+01 -2.873499e-15 6.000000e+00
         vertex -5.200000e+01 2.167450e+00 5.594833e+00
         vertex -5.200000e+01 -4.042174e+00 4.434053e+00
      endloop
   endfacet
   facet normal -1.000000e+00 0.000000e+00 0.000000e+00
      outer loop
         vertex -5.200000e+01 -4.042174e+00 4.434053e+00
         vertex -5.200000e+01 2.167450e+00 5.594833e+00
         vertex -5.200000e+01 -5.370980e+00 2.674430e+00
      endloop
   endfacet
   facet normal -1.000000e+00 -0.000000e+00 0.000000e+00
      outer loop
         vertex -5.200000e+01 2.167450e+00 5.594833e+00
         vertex -5.200000e+01 4.042174e+00 4.434053e+00
         vertex -5.200000e+01 -5.370980e+00 2.674430e+00
      endloop
   endfacet
   facet normal -1.000000e+00 -0.000000e+00 0.000000e+00
      outer loop
         vertex -5.200000e+01 -5.370980e+00 2.674430e+00
         vertex -5.200000e+01 -1.375000e+00 2.381570e+00
         vertex -5.200000e+01 -5.974405e+00 5.536101e-01
      endloop
   endfacet
   facet normal -1.000000e+00 -0.000000e+00 0.000000e+00
      outer loop
         vertex -5.200000e+01 -1.375000e+00 2.381570e+00
         vertex -5.200000e+01 -2.381570e+00 1.375000e+00
         vertex -5.200000e+01 -5.974405e+00 5.536101e-01
      endloop
   endfacet
   facet normal -1.000000e+00 0.000000e+00 0.000000e+00
      outer loop
         vertex -5.200000e+01 -5.974405e+00 5.536101e-01
         vertex -5.200000e+01 -2.381570e+00 1.375000e+00
         vertex -5.200000e+01 -5.770954e+00 -1.641978e+00
      endloop
   endfacet
   facet normal -1.000000e+00 -0.000000e+00 0.000000e+00
      outer loop
         vertex -5.200000e+01 -2.381570e+00 1.375000e+00
         vertex -5.200000e+01 -2.750000e+00 7.838267e-16
         vertex -5.200000e+01 -5.770954e+00 -1.641978e+00
      endloop
   endfacet
   facet normal -1.000000e+00 0.000000e+00 0.000000e+00
      outer loop
         vertex -5.200000e+01 -5.770954e+00 -1.641978e+00
         vertex -5.200000e+01 -2.750000e+00 7.838267e-16
         vertex -5.200000e+01 -4.788104e+00 -3.615808e+00
      endloop
   endfacet
   facet normal -1.000000e+00 -0.000000e+00 0.000000e+00
      outer loop
         vertex -5.200000e+01 -2.750000e+00 7.838267e-16
         vertex -5.200000e+01 -2.381570e+00 -1.375000e+00
         vertex -5.200000e+01 -4.788104e+00 -3.615808e+00
      endloop
   endfacet
   facet normal -1.000000e+00 0.000000e+00 0.000000e+00
      outer loop
         vertex -5.200000e+01 -4.788104e+00 -3.615808e+00
         vertex -5.200000e+01 -2.381570e+00 -1.375000e+00
         vertex -5.200000e+01 -3.158593e+00 -5.101303e+00
      endloop
   endfacet
   facet normal -1.000000e+00 -0.000000e+00 0.000000e+00
      outer loop
         vertex -5.200000e+01 -2.381570e+00 -1.375000e+00
         vertex -5.200000e+01 -1.375000e+00 -2.381570e+00
         vertex -5.200000e+01 -3.158593e+00 -5.101303e+00
      endloop
   endfacet
   facet normal -1.000000e+00 0.000000e+00 -0.000000e+00
      outer loop
         vertex -5.200000e+01 -3.158593e+00 -5.101303e+00
         vertex -5.200000e+01 -1.375000e+00 -2.381570e+00
         vertex -5.200000e+01 -1.102497e+00 -5.897839e+00
      endloop
   endfacet
   facet normal -1.000000e+00 -0.000000e+00 0.000000e+00
      outer loop
         vertex -5.200000e+01 -1.375000e+00 -2.381570e+00
         vertex -5.200000e+01 -2.138711e-15 -2.750000e+00
         vertex -5.200000e+01 -1.102497e+00 -5.897839e+00
      endloop
   endfacet
   facet normal -1.000000e+00 0.000000e+00 -0.000000e+00
      outer loop
         vertex -5.200000e+01 -1.102497e+00 -5.897839e+00
         vertex -5.200000e+01 -2.138711e-15 -2.750000e+00
         vertex -5.200000e+01 1.102497e+00 -5.897839e+00
      endloop
   endfacet
   facet normal -1.000000e+00 0.000000e+00 0.000000e+00
      outer loop
         vertex -5.200000e+01 -2.138711e-15 -2.750000e+00
         vertex -5.200000e+01 1.375000e+00 -2.381570e+00
         vertex -5.200000e+01 1.102497e+00 -5.897839e+00
      endloop
   endfacet
   facet normal -1.000000e+00 0.000000e+00 -0.000000e+00
      outer loop
         vertex -5.200000e+01 1.102497e+00 -5.897839e+00
         vertex -5.200000e+01 1.375000e+00 -2.381570e+00
         vertex -5.200000e+01 3.158593e+00 -5.101303e+00
      endloop
   endfacet
   facet normal -1.000000e+00 0.000000e+00 -0.000000e+00
      outer loop
         vertex -5.200000e+01 1.375000e+00 -2.381570e+00
         vertex -5.200000e+01 2.381570e+00 -1.375000e+00
         vertex -5.200000e+01 3.158593e+00 -5.101303e+00
      endloop
   endfacet
   facet normal -1.000000e+00 0.000000e+00 0.000000e+00
      outer loop
         vertex -5.200000e+01 3.158593e+00 -5.101303e+00
         vertex -5.200000e+01 2.381570e+00 -1.375000e+00
         vertex -5.200000e+01 4.788104e+00 -3.615808e+00
      endloop
   endfacet
   facet normal -1.000000e+00 0.000000e+00 -0.000000e+00
      outer loop
         vertex -5.200000e+01 2.381570e+00 -1.375000e+00
         vertex -5.200000e+01 2.750000e+00 1.457382e-15
         vertex -5.200000e+01 4.788104e+00 -3.615808e+00
      endloop
   endfacet
   facet normal -1.000000e+00 0.000000e+00 0.000000e+00
      outer loop
         vertex -5.200000e+01 4.788104e+00 -3.615808e+00
         vertex -5.200000e+01 2.750000e+00 1.457382e-15
         vertex -5.200000e+01 5.770954e+00 -1.641978e+00
      endloop
   endfacet
   facet normal -1.000000e+00 0.000000e+00 0.000000e+00
      outer loop
         vertex -5.200000e+01 2.750000e+00 1.457382e-15
         vertex -5.200000e+01 2.381570e+00 1.375000e+00
         vertex -5.200000e+01 5.770954e+00 -1.641978e+00
      endloop
   endfacet
   facet normal -1.000000e+00 0.000000e+00 0.000000e+00
      outer loop
         vertex -5.200000e+01 5.770954e+00 -1.641978e+00
         vertex -5.200000e+01 2.381570e+00 1.375000e+00
         vertex -5.200000e+01 5.974405e+00 5.536101e-01
      endloop
   endfacet
   facet normal -1.000000e+00 0.000000e+00 0.000000e+00
      outer loop
         vertex -5.200000e+01 2.381570e+00 1.375000e+00
         vertex -5.200000e+01 1.375000e+00 2.381570e+00
         vertex -5.200000e+01 5.974405e+00 5.536101e-01
      endloop
   endfacet
   facet normal -1.000000e+00 0.000000e+00 0.000000e+00
      outer loop
         vertex -5.200000e+01 5.974405e+00 5.536101e-01
         vertex -5.200000e+01 1.375000e+00 2.381570e+00
         vertex -5.200000e+01 5.370980e+00 2.674430e+00
      endloop
   endfacet
   facet normal -1.000000e+00 0.000000e+00 0.000000e+00
      outer loop
         vertex -5.200000e+01 1.375000e+00 2.381570e+00
         vertex -5.200000e+01 -3.696735e-15 2.750000e+00
         vertex -5.200000e+01 5.370980e+00 2.674430e+00
      endloop
   endfacet
   facet normal -1.000000e+00 0.000000e+00 0.000000e+00
      outer loop
         vertex -5.200000e+01 5.370980e+00 2.674430e+00
         vertex -5.200000e+01 -3.696735e-15 2.750000e+00
         vertex -5.200000e+01 4.042174e+00 4.434053e+00
      endloop
   endfacet
   facet normal -1.000000e+00 0.000000e+00 0.000000e+00
      outer loop
         vertex -5.200000e+01 -3.696735e-15 2.750000e+00
         vertex -5.200000e+01 -1.375000e+00 2.381570e+00
         vertex -5.200000e+01 4.042174e+00 4.434053e+00
      endloop
   endfacet
   facet normal -1.000000e+00 0.000000e+00 0.000000e+00
      outer loop
         vertex -5.200000e+01 4.042174e+00 4.434053e+00
         vertex -5.200000e+01 -1.375000e+00 2.381570e+00
         vertex -5.200000e+01 -5.370980e+00 2.674430e+00
      endloop
   endfacet
   facet normal -1.000000e+00 0.000000e+00 0.000000e+00
      outer loop
         vertex -4.600000e+01 4.647522e+00 -2.710444e+01
         vertex -4.600000e+01 -2.138711e-15 -2.750000e+01
         vertex -4.600000e+01 9.161345e+00 -2.592913e+01
      endloop
   endfacet
   facet normal -1.000000e+00 0.000000e+00 0.000000e+00
      outer loop
         vertex -4.600000e+01 -2.138711e-15 -2.750000e+01
         vertex -4.600000e+01 -4.647522e+00 -2.710444e+01
         vertex -4.600000e+01 9.161345e+00 -2.592913e+01
      endloop
   endfacet
   facet normal -1.000000e+00 0.000000e+00 0.000000e+00
      outer loop
         vertex -4.600000e+01 9.161345e+00 -2.592913e+01
         vertex -4.600000e+01 -4.647522e+00 -2.710444e+01
         vertex -4.600000e+01 1.341161e+01 -2.400789e+01
      endloop
   endfacet
   facet normal -1.000000e+00 0.000000e+00 0.000000e+00
      outer loop
         vertex -4.600000e+01 -4.647522e+00 -2.710444e+01
         vertex -4.600000e+01 -9.161345e+00 -2.592913e+01
         vertex -4.600000e+01 1.341161e+01 -2.400789e+01
      endloop
   endfacet
   facet normal -1.000000e+00 0.000000e+00 0.000000e+00
      outer loop
         vertex -4.600000e+01 1.341161e+01 -2.400789e+01
         vertex -4.600000e+01 -9.161345e+00 -2.592913e+01
         vertex -4.600000e+01 1.727605e+01 -2.139598e+01
      endloop
   endfacet
   facet normal -1.000000e+00 0.000000e+00 0.000000e+00
      outer loop
         vertex -4.600000e+01 -9.161345e+00 -2.592913e+01
         vertex -4.600000e+01 -1.341161e+01 -2.400789e+01
         vertex -4.600000e+01 1.727605e+01 -2.139598e+01
      endloop
   endfacet
   facet normal -1.000000e+00 0.000000e+00 0.000000e+00
      outer loop
         vertex -4.600000e+01 1.727605e+01 -2.139598e+01
         vertex -4.600000e+01 -1.341161e+01 -2.400789e+01
         vertex -4.600000e+01 2.064349e+01 -1.816855e+01
      endloop
   endfacet
   facet normal -1.000000e+00 0.000000e+00 0.000000e+00
      outer loop
         vertex -4.600000e+01 -1.341161e+01 -2.400789e+01
         vertex -4.600000e+01 -1.727605e+01 -2.139598e+01
         vertex -4.600000e+01 2.064349e+01 -1.816855e+01
      endloop
   endfacet
   facet normal -1.000000e+00 0.000000e+00 0.000000e+00
      outer loop
         vertex -4.600000e+01 2.064349e+01 -1.816855e+01
         vertex -4.600000e+01 -1.727605e+01 -2.139598e+01
         vertex -4.600000e+01 2.341705e+01 -1.441845e+01
      endloop
   endfacet
   facet normal -1.000000e+00 0.000000e+00 0.000000e+00
      outer loop
         vertex -4.600000e+01 -1.727605e+01 -2.139598e+01
         vertex -4.600000e+01 -2.064349e+01 -1.816855e+01
         vertex -4.600000e+01 2.341705e+01 -1.441845e+01
      endloop
   endfacet
   facet normal -1.000000e+00 0.000000e+00 0.000000e+00
      outer loop
         vertex -4.600000e+01 2.341705e+01 -1.441845e+01
         vertex -4.600000e+01 -2.064349e+01 -1.816855e+01
         vertex -4.600000e+01 2.551695e+01 -1.025355e+01
      endloop
   endfacet
   facet normal -1.000000e+00 0.000000e+00 0.000000e+00
      outer loop
         vertex -4.600000e+01 -2.064349e+01 -1.816855e+01
         vertex -4.600000e+01 -2.341705e+01 -1.441845e+01
         vertex -4.600000e+01 2.551695e+01 -1.025355e+01
      endloop
   endfacet
   facet normal -1.000000e+00 0.000000e+00 0.000000e+00
      outer loop
         vertex -4.600000e+01 2.551695e+01 -1.025355e+01
         vertex -4.600000e+01 -2.341705e+01 -1.441845e+01
         vertex -4.600000e+01 2.688277e+01 -5.793680e+00
      endloop
   endfacet
   facet normal -1.000000e+00 0.000000e+00 0.000000e+00
      outer loop
         vertex -4.600000e+01 -2.341705e+01 -1.441845e+01
         vertex -4.600000e+01 -2.551695e+01 -1.025355e+01
         vertex -4.600000e+01 2.688277e+01 -5.793680e+00
      endloop
   endfacet
   facet normal -1.000000e+00 0.000000e+00 0.000000e+00
      outer loop
         vertex -4.600000e+01 2.688277e+01 -5.793680e+00
         vertex -4.600000e+01 1.102497e+00 -5.897839e+00
         vertex -4.600000e+01 2.747522e+01 -1.167133e+00
      endloop
   endfacet
   facet normal -1.000000e+00 0.000000e+00 -0.000000e+00
      outer loop
         vertex -4.600000e+01 1.102497e+00 -5.897839e+00
         vertex -4.600000e+01 3.158593e+00 -5.101303e+00
         vertex -4.600000e+01 2.747522e+01 -1.167133e+00
      endloop
   endfacet
   facet normal -1.000000e+00 0.000000e+00 0.000000e+00
      outer loop
         vertex -4.600000e+01 2.747522e+01 -1.167133e+00
         vertex -4.600000e+01 3.158593e+00 -5.101303e+00
         vertex -4.600000e+01 2.727726e+01 3.492990e+00
      endloop
   endfacet
   facet normal -1.000000e+00 0.000000e+00 -0.000000e+00
      outer loop
         vertex -4.600000e+01 3.158593e+00 -5.101303e+00
         vertex -4.600000e+01 4.788104e+00 -3.615808e+00
         vertex -4.600000e+01 2.727726e+01 3.492990e+00
      endloop
   endfacet
   facet normal -1.000000e+00 0.000000e+00 0.000000e+00
      outer loop
         vertex -4.600000e+01 2.727726e+01 3.492990e+00
         vertex -4.600000e+01 4.788104e+00 -3.615808e+00
         vertex -4.600000e+01 2.629458e+01 8.052627e+00
      endloop
   endfacet
   facet normal -1.000000e+00 0.000000e+00 -0.000000e+00
      outer loop
         vertex -4.600000e+01 4.788104e+00 -3.615808e+00
         vertex -4.600000e+01 5.770954e+00 -1.641978e+00
         vertex -4.600000e+01 2.629458e+01 8.052627e+00
      endloop
   endfacet
   facet normal -1.000000e+00 0.000000e+00 0.000000e+00
      outer loop
         vertex -4.600000e+01 2.629458e+01 8.052627e+00
         vertex -4.600000e+01 5.770954e+00 -1.641978e+00
         vertex -4.600000e+01 2.455546e+01 1.238060e+01
      endloop
   endfacet
   facet normal -1.000000e+00 0.000000e+00 -0.000000e+00
      outer loop
         vertex -4.600000e+01 5.770954e+00 -1.641978e+00
         vertex -4.600000e+01 5.974405e+00 5.536101e-01
         vertex -4.600000e+01 2.455546e+01 1.238060e+01
      endloop
   endfacet
   facet normal -1.000000e+00 0.000000e+00 0.000000e+00
      outer loop
         vertex -4.600000e+01 2.455546e+01 1.238060e+01
         vertex -4.600000e+01 5.974405e+00 5.536101e-01
         vertex -4.600000e+01 2.210992e+01 1.635241e+01
      endloop
   endfacet
   facet normal -1.000000e+00 0.000000e+00 0.000000e+00
      outer loop
         vertex -4.600000e+01 5.974405e+00 5.536101e-01
         vertex -4.600000e+01 5.370980e+00 2.674430e+00
         vertex -4.600000e+01 2.210992e+01 1.635241e+01
      endloop
   endfacet
   facet normal -1.000000e+00 0.000000e+00 0.000000e+00
      outer loop
         vertex -4.600000e+01 2.210992e+01 1.635241e+01
         vertex -4.600000e+01 5.370980e+00 2.674430e+00
         vertex -4.600000e+01 1.902832e+01 1.985379e+01
      endloop
   endfacet
   facet normal -1.000000e+00 0.000000e+00 0.000000e+00
      outer loop
         vertex -4.600000e+01 5.370980e+00 2.674430e+00
         vertex -4.600000e+01 4.042174e+00 4.434053e+00
         vertex -4.600000e+01 1.902832e+01 1.985379e+01
      endloop
   endfacet
   facet normal -1.000000e+00 0.000000e+00 0.000000e+00
      outer loop
         vertex -4.600000e+01 1.902832e+01 1.985379e+01
         vertex -4.600000e+01 4.042174e+00 4.434053e+00
         vertex -4.600000e+01 1.539931e+01 2.278402e+01
      endloop
   endfacet
   facet normal -1.000000e+00 0.000000e+00 0.000000e+00
      outer loop
         vertex -4.600000e+01 4.042174e+00 4.434053e+00
         vertex -4.600000e+01 2.167450e+00 5.594833e+00
         vertex -4.600000e+01 1.539931e+01 2.278402e+01
      endloop
   endfacet
   facet normal -1.000000e+00 0.000000e+00 0.000000e+00
      outer loop
         vertex -4.600000e+01 1.539931e+01 2.278402e+01
         vertex -4.600000e+01 2.167450e+00 5.594833e+00
         vertex -4.600000e+01 1.132728e+01 2.505878e+01
      endloop
   endfacet
   facet normal -1.000000e+00 0.000000e+00 0.000000e+00
      outer loop
         vertex -4.600000e+01 2.167450e+00 5.594833e+00
         vertex -4.600000e+01 -2.873499e-15 6.000000e+00
         vertex -4.600000e+01 1.132728e+01 2.505878e+01
      endloop
   endfacet
   facet normal -1.000000e+00 0.000000e+00 0.000000e+00
      outer loop
         vertex -4.600000e+01 1.132728e+01 2.505878e+01
         vertex -4.600000e+01 -2.873499e-15 6.000000e+00
         vertex -4.600000e+01 6.929397e+00 2.661266e+01
      endloop
   endfacet
   facet normal -1.000000e+00 0.000000e+00 0.000000e+00
      outer loop
         vertex -4.600000e+01 -2.873499e-15 6.000000e+00
         vertex -4.600000e+01 -2.167450e+00 5.594833e+00
         vertex -4.600000e+01 6.929397e+00 2.661266e+01
      endloop
   endfacet
   facet normal -1.000000e+00 0.000000e+00 0.000000e+00
      outer loop
         vertex -4.600000e+01 6.929397e+00 2.661266e+01
         vertex -4.600000e+01 -2.167450e+00 5.594833e+00
         vertex -4.600000e+01 2.332163e+00 2.740093e+01
      endloop
   endfacet
   facet normal -1.000000e+00 0.000000e+00 0.000000e+00
      outer loop
         vertex -4.600000e+01 -2.167450e+00 5.594833e+00
         vertex -4.600000e+01 -4.042174e+00 4.434053e+00
         vertex -4.600000e+01 2.332163e+00 2.740093e+01
      endloop
   endfacet
   facet normal -1.000000e+00 0.000000e+00 0.000000e+00
      outer loop
         vertex -4.600000e+01 2.332163e+00 2.740093e+01
         vertex -4.600000e+01 -4.042174e+00 4.434053e+00
         vertex -4.600000e+01 -2.332163e+00 2.740093e+01
      endloop
   endfacet
   facet normal -1.000000e+00 0.000000e+00 0.000000e+00
      outer loop
         vertex -4.600000e+01 -4.042174e+00 4.434053e+00
         vertex -4.600000e+01 -5.370980e+00 2.674430e+00
         vertex -4.600000e+01 -2.332163e+00 2.740093e+01
      endloop
   endfacet
   facet normal -1.000000e+00 0.000000e+00 0.000000e+00
      outer loop
         vertex -4.600000e+01 -2.332163e+00 2.740093e+01
         vertex -4.600000e+01 -5.370980e+00 2.674430e+00
         vertex -4.600000e+01 -6.929397e+00 2.661266e+01
      endloop
   endfacet
   facet normal -1.000000e+00 0.000000e+00 0.000000e+00
      outer loop
         vertex -4.600000e+01 -5.370980e+00 2.674430e+00
         vertex -4.600000e+01 -5.974405e+00 5.536101e-01
         vertex -4.600000e+01 -6.929397e+00 2.661266e+01
      endloop
   endfacet
   facet normal -1.000000e+00 0.000000e+00 0.000000e+00
      outer loop
         vertex -4.600000e+01 -6.929397e+00 2.661266e+01
         vertex -4.600000e+01 -5.974405e+00 5.536101e-01
         vertex -4.600000e+01 -1.132728e+01 2.505878e+01
      endloop
   endfacet
   facet normal -1.000000e+00 0.000000e+00 0.000000e+00
      outer loop
         vertex -4.600000e+01 -5.974405e+00 5.536101e-01
         vertex -4.600000e+01 -5.770954e+00 -1.641978e+00
         vertex -4.600000e+01 -1.132728e+01 2.505878e+01
      endloop
   endfacet
   facet normal -1.000000e+00 0.000000e+00 0.000000e+00
      outer loop
         vertex -4.600000e+01 -1.132728e+01 2.505878e+01
         vertex -4.600000e+01 -5.770954e+00 -1.641978e+00
         vertex -4.600000e+01 -1.539931e+01 2.278402e+01
      endloop
   endfacet
   facet normal -1.000000e+00 0.000000e+00 0.000000e+00
      outer loop
         vertex -4.600000e+01 2.688277e+01 -5.793680e+00
         vertex -4.600000e+01 -2.551695e+01 -1.025355e+01
         vertex -4.600000e+01 1.102497e+00 -5.897839e+00
      endloop
   endfacet
   facet normal -1.000000e+00 0.000000e+00 0.000000e+00
      outer loop
         vertex -4.600000e+01 1.102497e+00 -5.897839e+00
         vertex -4.600000e+01 -2.551695e+01 -1.025355e+01
         vertex -4.600000e+01 -1.102497e+00 -5.897839e+00
      endloop
   endfacet
   facet normal -1.000000e+00 0.000000e+00 0.000000e+00
      outer loop
         vertex -4.600000e+01 -2.551695e+01 -1.025355e+01
         vertex -4.600000e+01 -2.688277e+01 -5.793680e+00
         vertex -4.600000e+01 -1.102497e+00 -5.897839e+00
      endloop
   endfacet
   facet normal -1.000000e+00 0.000000e+00 0.000000e+00
      outer loop
         vertex -4.600000e+01 -1.102497e+00 -5.897839e+00
         vertex -4.600000e+01 -2.688277e+01 -5.793680e+00
         vertex -4.600000e+01 -3.158593e+00 -5.101303e+00
      endloop
   endfacet
   facet normal -1.000000e+00 0.000000e+00 0.000000e+00
      outer loop
         vertex -4.600000e+01 -2.688277e+01 -5.793680e+00
         vertex -4.600000e+01 -2.747522e+01 -1.167133e+00
         vertex -4.600000e+01 -3.158593e+00 -5.101303e+00
      endloop
   endfacet
   facet normal -1.000000e+00 0.000000e+00 0.000000e+00
      outer loop
         vertex -4.600000e+01 -3.158593e+00 -5.101303e+00
         vertex -4.600000e+01 -2.747522e+01 -1.167133e+00
         vertex -4.600000e+01 -4.788104e+00 -3.615808e+00
      endloop
   endfacet
   facet normal -1.000000e+00 0.000000e+00 -0.000000e+00
      outer loop
         vertex -4.600000e+01 -2.747522e+01 -1.167133e+00
         vertex -4.600000e+01 -2.727726e+01 3.492990e+00
         vertex -4.600000e+01 -4.788104e+00 -3.615808e+00
      endloop
   endfacet
   facet normal -1.000000e+00 0.000000e+00 0.000000e+00
      outer loop
         vertex -4.600000e+01 -4.788104e+00 -3.615808e+00
         vertex -4.600000e+01 -2.727726e+01 3.492990e+00
         vertex -4.600000e+01 -5.770954e+00 -1.641978e+00
      endloop
   endfacet
   facet normal -1.000000e+00 0.000000e+00 -0.000000e+00
      outer loop
         vertex -4.600000e+01 -2.727726e+01 3.492990e+00
         vertex -4.600000e+01 -2.629458e+01 8.052627e+00
         vertex -4.600000e+01 -5.770954e+00 -1.641978e+00
      endloop
   endfacet
   facet normal -1.000000e+00 0.000000e+00 0.000000e+00
      outer loop
         vertex -4.600000e+01 -5.770954e+00 -1.641978e+00
         vertex -4.600000e+01 -2.629458e+01 8.052627e+00
         vertex -4.600000e+01 -1.539931e+01 2.278402e+01
      endloop
   endfacet
   facet normal -1.000000e+00 0.000000e+00 -0.000000e+00
      outer loop
         vertex -4.600000e+01 -2.629458e+01 8.052627e+00
         vertex -4.600000e+01 -2.455546e+01 1.238060e+01
         vertex -4.600000e+01 -1.539931e+01 2.278402e+01
      endloop
   endfacet
   facet normal -1.000000e+00 0.000000e+00 0.000000e+00
      outer loop
         vertex -4.600000e+01 -1.539931e+01 2.278402e+01
         vertex -4.600000e+01 -2.455546e+01 1.238060e+01
         vertex -4.600000e+01 -1.902832e+01 1.985379e+01
      endloop
   endfacet
   facet normal -1.000000e+00 0.000000e+00 -0.000000e+00
      outer loop
         vertex -4.600000e+01 -2.455546e+01 1.238060e+01
         vertex -4.600000e+01 -2.210992e+01 1.635241e+01
         vertex -4.600000e+01 -1.902832e+01 1.985379e+01
      endloop
   endfacet
   facet normal 0.000000e+00 1.837495e-01 9.829731e-01
      outer loop
         vertex -4.600000e+01 -2.873499e-15 6.000000e+00
         vertex -4.600000e+01 2.167450e+00 5.594833e+00
         vertex -5.200000e+01 2.167450e+00 5.594833e+00
      endloop
   endfacet
   facet normal 0.000000e+00 1.837495e-01 9.829731e-01
      outer loop
         vertex -4.600000e+01 -2.873499e-15 6.000000e+00
         vertex -5.200000e+01 2.167450e+00 5.594833e+00
         vertex -5.200000e+01 -2.873499e-15 6.000000e+00
      endloop
   endfacet
   facet normal 0.000000e+00 5.264322e-01 8.502171e-01
      outer loop
         vertex -4.600000e+01 2.167450e+00 5.594833e+00
         vertex -4.600000e+01 4.042174e+00 4.434053e+00
         vertex -5.200000e+01 4.042174e+00 4.434053e+00
      endloop
   endfacet
   facet normal 0.000000e+00 5.264322e-01 8.502171e-01
      outer loop
         vertex -4.600000e+01 2.167450e+00 5.594833e+00
         vertex -5.200000e+01 4.042174e+00 4.434053e+00
         vertex -5.200000e+01 2.167450e+00 5.594833e+00
      endloop
   endfacet
   facet normal 0.000000e+00 7.980172e-01 6.026347e-01
      outer loop
         vertex -4.600000e+01 4.042174e+00 4.434053e+00
         vertex -4.600000e+01 5.370980e+00 2.674430e+00
         vertex -5.200000e+01 5.370980e+00 2.674430e+00
      endloop
   endfacet
   facet normal 0.000000e+00 7.980172e-01 6.026347e-01
      outer loop
         vertex -4.600000e+01 4.042174e+00 4.434053e+00
         vertex -5.200000e+01 5.370980e+00 2.674430e+00
         vertex -5.200000e+01 4.042174e+00 4.434053e+00
      endloop
   endfacet
   facet normal 0.000000e+00 9.618256e-01 2.736631e-01
      outer loop
         vertex -4.600000e+01 5.370980e+00 2.674430e+00
         vertex -4.600000e+01 5.974405e+00 5.536101e-01
         vertex -5.200000e+01 5.974405e+00 5.536101e-01
      endloop
   endfacet
   facet normal 0.000000e+00 9.618256e-01 2.736631e-01
      outer loop
         vertex -4.600000e+01 5.370980e+00 2.674430e+00
         vertex -5.200000e+01 5.974405e+00 5.536101e-01
         vertex -5.200000e+01 5.370980e+00 2.674430e+00
      endloop
   endfacet
   facet normal 0.000000e+00 9.957342e-01 -9.226856e-02
      outer loop
         vertex -4.600000e+01 5.974405e+00 5.536101e-01
         vertex -4.600000e+01 5.770954e+00 -1.641978e+00
         vertex -5.200000e+01 5.770954e+00 -1.641978e+00
      endloop
   endfacet
   facet normal 0.000000e+00 9.957342e-01 -9.226856e-02
      outer loop
         vertex -4.600000e+01 5.974405e+00 5.536101e-01
         vertex -5.200000e+01 5.770954e+00 -1.641978e+00
         vertex -5.200000e+01 5.974405e+00 5.536101e-01
      endloop
   endfacet
   facet normal 0.000000e+00 8.951634e-01 -4.457382e-01
      outer loop
         vertex -4.600000e+01 5.770954e+00 -1.641978e+00
         vertex -4.600000e+01 4.788104e+00 -3.615808e+00
         vertex -5.200000e+01 4.788104e+00 -3.615808e+00
      endloop
   endfacet
   facet normal 0.000000e+00 8.951634e-01 -4.457382e-01
      outer loop
         vertex -4.600000e+01 5.770954e+00 -1.641978e+00
         vertex -5.200000e+01 4.788104e+00 -3.615808e+00
         vertex -5.200000e+01 5.770954e+00 -1.641978e+00
      endloop
   endfacet
   facet normal 0.000000e+00 6.736956e-01 -7.390090e-01
      outer loop
         vertex -4.600000e+01 4.788104e+00 -3.615808e+00
         vertex -4.600000e+01 3.158593e+00 -5.101303e+00
         vertex -5.200000e+01 3.158593e+00 -5.101303e+00
      endloop
   endfacet
   facet normal 0.000000e+00 6.736956e-01 -7.390090e-01
      outer loop
         vertex -4.600000e+01 4.788104e+00 -3.615808e+00
         vertex -5.200000e+01 3.158593e+00 -5.101303e+00
         vertex -5.200000e+01 4.788104e+00 -3.615808e+00
      endloop
   endfacet
   facet normal 0.000000e+00 3.612417e-01 -9.324722e-01
      outer loop
         vertex -4.600000e+01 3.158593e+00 -5.101303e+00
         vertex -4.600000e+01 1.102497e+00 -5.897839e+00
         vertex -5.200000e+01 1.102497e+00 -5.897839e+00
      endloop
   endfacet
   facet normal 0.000000e+00 3.612417e-01 -9.324722e-01
      outer loop
         vertex -4.600000e+01 3.158593e+00 -5.101303e+00
         vertex -5.200000e+01 1.102497e+00 -5.897839e+00
         vertex -5.200000e+01 3.158593e+00 -5.101303e+00
      endloop
   endfacet
   facet normal 0.000000e+00 0.000000e+00 -1.000000e+00
      outer loop
         vertex -4.600000e+01 1.102497e+00 -5.897839e+00
         vertex -4.600000e+01 -1.102497e+00 -5.897839e+00
         vertex -5.200000e+01 -1.102497e+00 -5.897839e+00
      endloop
   endfacet
   facet normal 0.000000e+00 0.000000e+00 -1.000000e+00
      outer loop
         vertex -4.600000e+01 1.102497e+00 -5.897839e+00
         vertex -5.200000e+01 -1.102497e+00 -5.897839e+00
         vertex -5.200000e+01 1.102497e+00 -5.897839e+00
      endloop
   endfacet
   facet normal -0.000000e+00 -3.612417e-01 -9.324722e-01
      outer loop
         vertex -4.600000e+01 -1.102497e+00 -5.897839e+00
         vertex -4.600000e+01 -3.158593e+00 -5.101303e+00
         vertex -5.200000e+01 -3.158593e+00 -5.101303e+00
      endloop
   endfacet
   facet normal 0.000000e+00 -3.612417e-01 -9.324722e-01
      outer loop
         vertex -4.600000e+01 -1.102497e+00 -5.897839e+00
         vertex -5.200000e+01 -3.158593e+00 -5.101303e+00
         vertex -5.200000e+01 -1.102497e+00 -5.897839e+00
      endloop
   endfacet
   facet normal -0.000000e+00 -6.736956e-01 -7.390090e-01
      outer loop
         vertex -4.600000e+01 -3.158593e+00 -5.101303e+00
         vertex -4.600000e+01 -4.788104e+00 -3.615808e+00
         vertex -5.200000e+01 -4.788104e+00 -3.615808e+00
      endloop
   endfacet
   facet normal 0.000000e+00 -6.736956e-01 -7.390090e-01
      outer loop
         vertex -4.600000e+01 -3.158593e+00 -5.101303e+00
         vertex -5.200000e+01 -4.788104e+00 -3.615808e+00
         vertex -5.200000e+01 -3.158593e+00 -5.101303e+00
      endloop
   endfacet
   facet normal -0.000000e+00 -8.951634e-01 -4.457382e-01
      outer loop
         vertex -4.600000e+01 -4.788104e+00 -3.615808e+00
         vertex -4.600000e+01 -5.770954e+00 -1.641978e+00
         vertex -5.200000e+01 -5.770954e+00 -1.641978e+00
      endloop
   endfacet
   facet normal 0.000000e+00 -8.951634e-01 -4.457382e-01
      outer loop
         vertex -4.600000e+01 -4.788104e+00 -3.615808e+00
         vertex -5.200000e+01 -5.770954e+00 -1.641978e+00
         vertex -5.200000e+01 -4.788104e+00 -3.615808e+00
      endloop
   endfacet
   facet normal -0.000000e+00 -9.957342e-01 -9.226856e-02
      outer loop
         vertex -4.600000e+01 -5.770954e+00 -1.641978e+00
         vertex -4.600000e+01 -5.974405e+00 5.536101e-01
         vertex -5.200000e+01 -5.974405e+00 5.536101e-01
      endloop
   endfacet
   facet normal 0.000000e+00 -9.957342e-01 -9.226856e-02
      outer loop
         vertex -4.600000e+01 -5.770954e+00 -1.641978e+00
         vertex -5.200000e+01 -5.974405e+00 5.536101e-01
         vertex -5.200000e+01 -5.770954e+00 -1.641978e+00
      endloop
   endfacet
   facet normal 0.000000e+00 -9.618256e-01 2.736631e-01
      outer loop
         vertex -4.600000e+01 -5.974405e+00 5.536101e-01
         vertex -4.600000e+01 -5.370980e+00 2.674430e+00
         vertex -5.200000e+01 -5.370980e+00 2.674430e+00
      endloop
   endfacet
   facet normal 0.000000e+00 -9.618256e-01 2.736631e-01
      outer loop
         vertex -4.600000e+01 -5.974405e+00 5.536101e-01
         vertex -5.200000e+01 -5.370980e+00 2.674430e+00
         vertex -5.200000e+01 -5.974405e+00 5.536101e-01
      endloop
   endfacet
   facet normal 0.000000e+00 -7.980172e-01 6.026347e-01
      outer loop
         vertex -4.600000e+01 -5.370980e+00 2.674430e+00
         vertex -4.600000e+01 -4.042174e+00 4.434053e+00
         vertex -5.200000e+01 -4.042174e+00 4.434053e+00
      endloop
   endfacet
   facet normal 0.000000e+00 -7.980172e-01 6.026347e-01
      outer loop
         vertex -4.600000e+01 -5.370980e+00 2.674430e+00
         vertex -5.200000e+01 -4.042174e+00 4.434053e+00
         vertex -5.200000e+01 -5.370980e+00 2.674430e+00
      endloop
   endfacet
   facet normal 0.000000e+00 -5.264322e-01 8.502171e-01
      outer loop
         vertex -4.600000e+01 -4.042174e+00 4.434053e+00
         vertex -4.600000e+01 -2.167450e+00 5.594833e+00
         vertex -5.200000e+01 -2.167450e+00 5.594833e+00
      endloop
   endfacet
   facet normal 0.000000e+00 -5.264322e-01 8.502171e-01
      outer loop
         vertex -4.600000e+01 -4.042174e+00 4.434053e+00
         vertex -5.200000e+01 -2.167450e+00 5.594833e+00
         vertex -5.200000e+01 -4.042174e+00 4.434053e+00
      endloop
   endfacet
   facet normal 0.000000e+00 -1.837495e-01 9.829731e-01
      outer loop
         vertex -4.600000e+01 -2.167450e+00 5.594833e+00
         vertex -4.600000e+01 -4.343075e-15 6.000000e+00
         vertex -5.200000e+01 -4.343075e-15 6.000000e+00
      endloop
   endfacet
   facet normal 0.000000e+00 -1.837495e-01 9.829731e-01
      outer loop
         vertex -4.600000e+01 -2.167450e+00 5.594833e+00
         vertex -5.200000e+01 -4.343075e-15 6.000000e+00
         vertex -5.200000e+01 -2.167450e+00 5.594833e+00
      endloop
   endfacet
endsolid
